<?xml version="1.0" encoding="UTF-8" standalone="no"?>
<svg
   xmlns:ns56="http://www.iki.fi/pav/software/textext/"
   xmlns:dc="http://purl.org/dc/elements/1.1/"
   xmlns:cc="http://creativecommons.org/ns#"
   xmlns:rdf="http://www.w3.org/1999/02/22-rdf-syntax-ns#"
   xmlns:svg="http://www.w3.org/2000/svg"
   xmlns="http://www.w3.org/2000/svg"
   xmlns:sodipodi="http://sodipodi.sourceforge.net/DTD/sodipodi-0.dtd"
   xmlns:inkscape="http://www.inkscape.org/namespaces/inkscape"
   sodipodi:docname="Element4_2.svg"
   inkscape:version="1.0 (4035a4fb49, 2020-05-01)"
   id="svg5"
   version="1.1"
   viewBox="0 0 112.26613 26.702147"
   height="26.702147mm"
   width="112.26613mm">
  <metadata
     id="metadata35">
    <rdf:RDF>
      <cc:Work
         rdf:about="">
        <dc:format>image/svg+xml</dc:format>
        <dc:type
           rdf:resource="http://purl.org/dc/dcmitype/StillImage" />
        <dc:title />
      </cc:Work>
    </rdf:RDF>
  </metadata>
  <sodipodi:namedview
     id="namedview7"
     pagecolor="#ffffff"
     bordercolor="#666666"
     borderopacity="1.0"
     inkscape:pageshadow="2"
     inkscape:pageopacity="0.0"
     inkscape:pagecheckerboard="0"
     inkscape:document-units="mm"
     showgrid="false"
     inkscape:zoom="1.7033109"
     inkscape:cx="195.5909"
     inkscape:cy="63.60933"
     inkscape:window-width="1920"
     inkscape:window-height="991"
     inkscape:window-x="-9"
     inkscape:window-y="-9"
     inkscape:window-maximized="1"
     inkscape:current-layer="layer1"
     inkscape:snap-intersection-paths="true"
     inkscape:object-paths="true"
     inkscape:snap-smooth-nodes="true"
     inkscape:snap-midpoints="true"
     inkscape:document-rotation="0" />
  <defs
     id="defs2">
    <g
       style="fill:#008000;stroke-width:0"
       id="id-aa3f475a-e906-42c0-b311-f3559ebba2b3">
      <symbol
         style="fill:#008000;stroke-width:0"
         overflow="visible"
         id="id-481c8b42-acef-4cec-bc4f-fa97da6867a1">
        <path
           style="fill:#008000;stroke:#008000;stroke-width:0"
           d=""
           id="id-157ac98b-6179-4961-9df4-3066c1e01b0b" />
      </symbol>
      <symbol
         style="fill:#008000;stroke-width:0"
         overflow="visible"
         id="id-da7a0aca-410b-4c82-aefe-d207ad554ce8">
        <path
           style="fill:#008000;stroke:#008000;stroke-width:0"
           d="m 2.890625,-3.515625 c 0.8125,-0.265625 1.390625,-0.953125 1.390625,-1.75 0,-0.8125 -0.875,-1.375 -1.828125,-1.375 -1,0 -1.765625,0.59375 -1.765625,1.359375 0,0.328125 0.21875,0.515625 0.515625,0.515625 0.296875,0 0.5,-0.21875 0.5,-0.515625 0,-0.484375 -0.46875,-0.484375 -0.609375,-0.484375 0.296875,-0.5 0.953125,-0.625 1.3125,-0.625 0.421875,0 0.96875,0.21875 0.96875,1.109375 0,0.125 -0.03125,0.703125 -0.28125,1.140625 C 2.796875,-3.65625 2.453125,-3.625 2.203125,-3.625 2.125,-3.609375 1.890625,-3.59375 1.8125,-3.59375 c -0.078125,0.015625 -0.140625,0.03125 -0.140625,0.125 0,0.109375 0.0625,0.109375 0.234375,0.109375 h 0.4375 c 0.8125,0 1.1875,0.671875 1.1875,1.65625 0,1.359375 -0.6875,1.640625 -1.125,1.640625 -0.4375,0 -1.1875,-0.171875 -1.53125,-0.75 0.34375,0.046875 0.65625,-0.171875 0.65625,-0.546875 0,-0.359375 -0.265625,-0.5625 -0.546875,-0.5625 -0.25,0 -0.5625,0.140625 -0.5625,0.578125 0,0.90625 0.921875,1.5625 2.015625,1.5625 1.21875,0 2.125,-0.90625 2.125,-1.921875 0,-0.8125 -0.640625,-1.59375 -1.671875,-1.8125 z m 0,0"
           id="id-e877427c-9ee1-4f25-be17-f6aaa694b1d9" />
      </symbol>
    </g>
  </defs>
  <g
     inkscape:label="Layer 1"
     inkscape:groupmode="layer"
     id="layer1"
     transform="translate(-228.30049,-173.32336)">
    <path
       id="path5358"
       style="fill:none;stroke:#000000;stroke-width:3.77953;stroke-linecap:butt;stroke-linejoin:miter;stroke-miterlimit:4;stroke-dasharray:none;stroke-opacity:1"
       d="M 41.028639,303.29107 C 266.93269,433.71683 332.49533,472.27783 351.52198,483.67727"
       transform="scale(0.26458333)" />
    <path
       id="path5267"
       clip-path="none"
       style="fill:none;stroke:#000000;stroke-width:3.77953;stroke-linecap:butt;stroke-linejoin:miter;stroke-miterlimit:4;stroke-dasharray:none;stroke-opacity:1"
       d="M 540.84937,306.9113 C 477.0214,371.80012 390.20354,457.87154 365.87416,481.95639"
       transform="scale(0.26458333)" />
    <path
       id="path3112"
       style="fill:none;stroke:#000000;stroke-width:3.77953;stroke-linecap:butt;stroke-linejoin:miter;stroke-miterlimit:4;stroke-dasharray:none;stroke-opacity:1"
       d="m 359.30021,496.05612 1e-5,229.58944"
       transform="scale(0.26458333)" />
    <ellipse
       style="opacity:1;fill:none;stroke:#000000;stroke-width:0.648413;stroke-miterlimit:4;stroke-dasharray:none;stop-color:#000000"
       id="path3273"
       cx="95.06485"
       cy="194.34421"
       rx="2.283175"
       ry="2.3504803" />
    <ellipse
       style="opacity:1;fill:none;stroke:#000000;stroke-width:0.648413;stroke-miterlimit:4;stroke-dasharray:none;stop-color:#000000"
       id="ellipse3651"
       cx="95.06485"
       cy="128.89793"
       rx="2.283175"
       ry="2.3504803" />
    <ellipse
       style="opacity:1;fill:none;stroke:#000000;stroke-width:0.648413;stroke-miterlimit:4;stroke-dasharray:none;stop-color:#000000"
       id="ellipse3653"
       cx="144.77879"
       cy="79.281441"
       rx="2.283175"
       ry="2.3504803" />
    <path
       id="path3657"
       style="fill:none;stroke:#000000;stroke-width:3.77953;stroke-linecap:butt;stroke-linejoin:miter;stroke-miterlimit:4;stroke-dasharray:none;stroke-opacity:1"
       d="m 350.69152,734.91512 -21.9749,-10e-6"
       transform="scale(0.26458333)" />
    <path
       id="path5554"
       style="fill:none;stroke:#000000;stroke-width:3.77953;stroke-linecap:butt;stroke-linejoin:miter;stroke-miterlimit:4;stroke-dasharray:none;stroke-opacity:1"
       d="m 393.51623,734.91511 -25.60769,2e-5"
       transform="scale(0.26458333)"
       sodipodi:nodetypes="cc" />
    <path
       style="fill:none;stroke:#000000;stroke-width:1;stroke-linecap:butt;stroke-linejoin:miter;stroke-miterlimit:4;stroke-dasharray:none;stroke-opacity:1"
       d="m 82.649111,198.84779 4.323829,-4.4015"
       id="path4062"
       sodipodi:nodetypes="cc" />
    <path
       style="fill:none;stroke:#000000;stroke-width:1;stroke-linecap:butt;stroke-linejoin:miter;stroke-miterlimit:4;stroke-dasharray:none;stroke-opacity:1"
       d="m 86.532479,198.84779 4.323829,-4.4015"
       id="path4239"
       sodipodi:nodetypes="cc" />
    <path
       id="path5641"
       style="fill:none;stroke:#000000;stroke-width:3.77953;stroke-linecap:butt;stroke-linejoin:miter;stroke-miterlimit:4;stroke-dasharray:none;stroke-opacity:1"
       d="m 342.1279,751.5507 10.82146,-11.01585"
       transform="scale(0.26458333)" />
    <path
       style="fill:none;stroke:#000000;stroke-width:1;stroke-linecap:butt;stroke-linejoin:miter;stroke-miterlimit:4;stroke-dasharray:none;stroke-opacity:1"
       d="m 96.043908,198.84779 4.323832,-4.4015"
       id="path4243"
       sodipodi:nodetypes="cc" />
    <path
       style="fill:none;stroke:#000000;stroke-width:1;stroke-linecap:butt;stroke-linejoin:miter;stroke-miterlimit:4;stroke-dasharray:none;stroke-opacity:1"
       d="m 99.464494,198.84779 4.323826,-4.4015"
       id="path4245"
       sodipodi:nodetypes="cc" />
    <path
       style="fill:none;stroke:#000000;stroke-width:1;stroke-linecap:butt;stroke-linejoin:miter;stroke-miterlimit:4;stroke-dasharray:none;stroke-opacity:1"
       d="m -2.8619805,73.81783 4.323829,4.4015"
       id="path4249"
       sodipodi:nodetypes="cc" />
    <path
       style="fill:none;stroke:#000000;stroke-width:1;stroke-linecap:butt;stroke-linejoin:miter;stroke-miterlimit:4;stroke-dasharray:none;stroke-opacity:1"
       d="m 1.0213875,73.81783 4.323829,4.4015"
       id="path4251"
       sodipodi:nodetypes="cc" />
    <path
       id="path4886"
       style="fill:none;stroke:#000000;stroke-width:1;stroke-linecap:butt;stroke-linejoin:miter;stroke-miterlimit:4;stroke-dasharray:none;stroke-opacity:1"
       d="m 5.0102494,73.817828 2.5954241,2.642047" />
    <ellipse
       style="fill:none;stroke:#000000;stroke-width:0.648413;stroke-miterlimit:4;stroke-dasharray:none;stop-color:#000000"
       id="ellipse3655"
       cx="9.4132872"
       cy="78.423576"
       rx="2.283175"
       ry="2.3504803" />
    <path
       style="fill:none;stroke:#000000;stroke-width:1;stroke-linecap:butt;stroke-linejoin:miter;stroke-miterlimit:4;stroke-dasharray:none;stroke-opacity:1"
       d="m 9.9713689,73.81783 4.3238301,4.4015"
       id="path4255"
       sodipodi:nodetypes="cc" />
    <path
       style="fill:none;stroke:#000000;stroke-width:1;stroke-linecap:butt;stroke-linejoin:miter;stroke-miterlimit:4;stroke-dasharray:none;stroke-opacity:1"
       d="m 13.411647,73.81783 4.323829,4.4015"
       id="path4257"
       sodipodi:nodetypes="cc" />
    <path
       id="path4259"
       style="fill:none;stroke:#000000;stroke-width:3.77953;stroke-linecap:butt;stroke-linejoin:miter;stroke-miterlimit:4;stroke-dasharray:none;stroke-opacity:1"
       d="m 26.949635,296.40406 -23.2964068,10e-6"
       transform="scale(0.26458333)" />
    <path
       id="path4506"
       style="fill:none;stroke:#000000;stroke-width:3.77953;stroke-linecap:butt;stroke-linejoin:miter;stroke-miterlimit:4;stroke-dasharray:none;stroke-opacity:1"
       d="M 66.975945,296.40407 44.2071,296.40406"
       transform="scale(0.26458333)"
       sodipodi:nodetypes="cc" />
    <path
       style="fill:none;stroke:#000000;stroke-width:1;stroke-linecap:butt;stroke-linejoin:miter;stroke-miterlimit:4;stroke-dasharray:none;stroke-opacity:1"
       d="m 132.34603,74.876164 4.32383,4.4015"
       id="path5937"
       sodipodi:nodetypes="cc" />
    <path
       style="fill:none;stroke:#000000;stroke-width:1;stroke-linecap:butt;stroke-linejoin:miter;stroke-miterlimit:4;stroke-dasharray:none;stroke-opacity:1"
       d="m 136.2294,74.876164 4.32383,4.4015"
       id="path5939"
       sodipodi:nodetypes="cc" />
    <path
       id="path5941"
       style="fill:none;stroke:#000000;stroke-width:1;stroke-linecap:butt;stroke-linejoin:miter;stroke-miterlimit:4;stroke-dasharray:none;stroke-opacity:1"
       d="m 140.21826,74.876162 2.59542,2.642047" />
    <path
       style="fill:none;stroke:#000000;stroke-width:1;stroke-linecap:butt;stroke-linejoin:miter;stroke-miterlimit:4;stroke-dasharray:none;stroke-opacity:1"
       d="m 145.17938,74.876164 4.32383,4.4015"
       id="path5943"
       sodipodi:nodetypes="cc" />
    <path
       style="fill:none;stroke:#000000;stroke-width:1;stroke-linecap:butt;stroke-linejoin:miter;stroke-miterlimit:4;stroke-dasharray:none;stroke-opacity:1"
       d="m 148.61966,74.876164 4.32383,4.4015"
       id="path5945"
       sodipodi:nodetypes="cc" />
    <path
       id="path5947"
       style="fill:none;stroke:#000000;stroke-width:1;stroke-linecap:butt;stroke-linejoin:miter;stroke-miterlimit:4;stroke-dasharray:none;stroke-opacity:1"
       d="m 142.33843,79.481907 -6.16384,3e-6" />
    <path
       id="path5949"
       style="fill:none;stroke:#000000;stroke-width:1;stroke-linecap:butt;stroke-linejoin:miter;stroke-miterlimit:4;stroke-dasharray:none;stroke-opacity:1"
       d="m 152.92873,79.48191 -6.02426,-3e-6"
       sodipodi:nodetypes="cc" />
    <path
       style="fill:none;stroke:#ff0000;stroke-width:1;stroke-linecap:butt;stroke-linejoin:miter;stroke-miterlimit:4;stroke-dasharray:none;stroke-opacity:1"
       d="M 97.348023,128.89793 H 114.83588"
       id="path6005"
       sodipodi:nodetypes="cc" />
    <path
       style="fill:none;stroke:#ff0000;stroke-width:1;stroke-linecap:butt;stroke-linejoin:miter;stroke-miterlimit:4;stroke-dasharray:none;stroke-opacity:1"
       d="m 108.11103,125.93645 6.72485,2.96148"
       id="path862"
       sodipodi:nodetypes="cc" />
    <path
       sodipodi:nodetypes="cc"
       id="path864"
       d="m 108.11103,131.85941 6.72485,-2.96148"
       style="fill:none;stroke:#ff0000;stroke-width:1;stroke-linecap:butt;stroke-linejoin:miter;stroke-miterlimit:4;stroke-dasharray:none;stroke-opacity:1" />
    <path
       sodipodi:nodetypes="cc"
       id="path866"
       d="M 95.06485,126.54745 V 109.05959"
       style="fill:none;stroke:#ff0000;stroke-width:1;stroke-linecap:butt;stroke-linejoin:miter;stroke-miterlimit:4;stroke-dasharray:none;stroke-opacity:1" />
    <path
       sodipodi:nodetypes="cc"
       id="path868"
       d="m 92.10337,115.78444 2.96148,-6.72485"
       style="fill:none;stroke:#ff0000;stroke-width:1;stroke-linecap:butt;stroke-linejoin:miter;stroke-miterlimit:4;stroke-dasharray:none;stroke-opacity:1" />
    <path
       style="fill:none;stroke:#ff0000;stroke-width:1;stroke-linecap:butt;stroke-linejoin:miter;stroke-miterlimit:4;stroke-dasharray:none;stroke-opacity:1"
       d="m 98.02633,115.78444 -2.96148,-6.72485"
       id="path870"
       sodipodi:nodetypes="cc" />
    <text
       xml:space="preserve"
       style="font-weight:bold;font-size:5.29167px;line-height:1.25;font-family:sans-serif;-inkscape-font-specification:'sans-serif Bold';fill:#ff0000;stroke:#ff0000;stroke-width:0.264583"
       x="117.01056"
       y="132.74265"
       id="text874"><tspan
         sodipodi:role="line"
         id="tspan872"
         x="117.01056"
         y="132.74265"
         style="font-size:10.5833px;fill:#ff0000;stroke:#ff0000;stroke-width:0.264583">0</tspan></text>
    <text
       id="text878"
       y="106.33574"
       x="91.302818"
       style="font-weight:bold;font-size:5.29167px;line-height:1.25;font-family:sans-serif;-inkscape-font-specification:'sans-serif Bold';fill:#ff0000;stroke:#ff0000;stroke-width:0.264583"
       xml:space="preserve"><tspan
         style="font-size:10.5833px;fill:#ff0000;stroke:#ff0000;stroke-width:0.264583"
         y="106.33574"
         x="91.302818"
         id="tspan876"
         sodipodi:role="line">1</tspan></text>
    <path
       id="path887"
       style="fill:none;stroke:#000000;stroke-width:7.55906;stroke-linecap:butt;stroke-linejoin:miter;stroke-miterlimit:4;stroke-dasharray:none;stroke-opacity:1"
       d="M -393.55993,459.92384 -165.55991,238.35931"
       transform="scale(0.26458333)" />
    <path
       id="path901"
       style="fill:none;stroke:#000000;stroke-width:7.55906;stroke-linecap:butt;stroke-linejoin:miter;stroke-miterlimit:4;stroke-dasharray:none;stroke-opacity:1"
       d="m -535.42779,230.14002 141.86628,229.78341"
       transform="scale(0.26458333)" />
    <path
       sodipodi:nodetypes="cc"
       id="path904"
       d="M 11.696462,78.423576 H 29.184319"
       style="fill:none;stroke:#ff0000;stroke-width:1;stroke-linecap:butt;stroke-linejoin:miter;stroke-miterlimit:4;stroke-dasharray:none;stroke-opacity:1" />
    <path
       sodipodi:nodetypes="cc"
       id="path906"
       d="m 22.459469,75.462096 6.72485,2.96148"
       style="fill:none;stroke:#ff0000;stroke-width:1;stroke-linecap:butt;stroke-linejoin:miter;stroke-miterlimit:4;stroke-dasharray:none;stroke-opacity:1" />
    <path
       style="fill:none;stroke:#ff0000;stroke-width:1;stroke-linecap:butt;stroke-linejoin:miter;stroke-miterlimit:4;stroke-dasharray:none;stroke-opacity:1"
       d="m 22.459469,81.385056 6.72485,-2.96148"
       id="path908"
       sodipodi:nodetypes="cc" />
    <text
       id="text912"
       y="82.268288"
       x="31.358999"
       style="font-weight:bold;font-size:5.29167px;line-height:1.25;font-family:sans-serif;-inkscape-font-specification:'sans-serif Bold';fill:#ff0000;stroke:#ff0000;stroke-width:0.264583"
       xml:space="preserve"><tspan
         style="font-size:10.5833px;fill:#ff0000;stroke:#ff0000;stroke-width:0.264583"
         y="82.268288"
         x="31.358999"
         id="tspan910"
         sodipodi:role="line">2</tspan></text>
    <path
       style="fill:none;stroke:#ff0000;stroke-width:1;stroke-linecap:butt;stroke-linejoin:miter;stroke-miterlimit:4;stroke-dasharray:none;stroke-opacity:1"
       d="M 9.4132872,76.073096 V 58.585231"
       id="path914"
       sodipodi:nodetypes="cc" />
    <path
       style="fill:none;stroke:#ff0000;stroke-width:1;stroke-linecap:butt;stroke-linejoin:miter;stroke-miterlimit:4;stroke-dasharray:none;stroke-opacity:1"
       d="m 6.4518074,65.310081 2.9614798,-6.72485"
       id="path916"
       sodipodi:nodetypes="cc" />
    <path
       sodipodi:nodetypes="cc"
       id="path918"
       d="M 12.374767,65.310081 9.4132872,58.585231"
       style="fill:none;stroke:#ff0000;stroke-width:1;stroke-linecap:butt;stroke-linejoin:miter;stroke-miterlimit:4;stroke-dasharray:none;stroke-opacity:1" />
    <text
       xml:space="preserve"
       style="font-weight:bold;font-size:5.29167px;line-height:1.25;font-family:sans-serif;-inkscape-font-specification:'sans-serif Bold';fill:#ff0000;stroke:#ff0000;stroke-width:0.264583"
       x="5.6512556"
       y="55.861382"
       id="text922"><tspan
         sodipodi:role="line"
         id="tspan920"
         x="5.6512556"
         y="55.861382"
         style="font-size:10.5833px;fill:#ff0000;stroke:#ff0000;stroke-width:0.264583">3</tspan></text>
    <path
       style="fill:none;stroke:#ff0000;stroke-width:1;stroke-linecap:butt;stroke-linejoin:miter;stroke-miterlimit:4;stroke-dasharray:none;stroke-opacity:1"
       d="m 147.06197,79.281441 h 17.48786"
       id="path924"
       sodipodi:nodetypes="cc" />
    <path
       style="fill:none;stroke:#ff0000;stroke-width:1;stroke-linecap:butt;stroke-linejoin:miter;stroke-miterlimit:4;stroke-dasharray:none;stroke-opacity:1"
       d="m 157.82498,76.319961 6.72485,2.96148"
       id="path926"
       sodipodi:nodetypes="cc" />
    <path
       sodipodi:nodetypes="cc"
       id="path928"
       d="m 157.82498,82.242921 6.72485,-2.96148"
       style="fill:none;stroke:#ff0000;stroke-width:1;stroke-linecap:butt;stroke-linejoin:miter;stroke-miterlimit:4;stroke-dasharray:none;stroke-opacity:1" />
    <text
       xml:space="preserve"
       style="font-weight:bold;font-size:5.29167px;line-height:1.25;font-family:sans-serif;-inkscape-font-specification:'sans-serif Bold';fill:#ff0000;stroke:#ff0000;stroke-width:0.264583"
       x="166.7245"
       y="83.126152"
       id="text932"><tspan
         sodipodi:role="line"
         id="tspan930"
         x="166.7245"
         y="83.126152"
         style="font-size:10.5833px;fill:#ff0000;stroke:#ff0000;stroke-width:0.264583">4</tspan></text>
    <path
       sodipodi:nodetypes="cc"
       id="path934"
       d="M 144.77879,76.930961 V 59.443096"
       style="fill:none;stroke:#ff0000;stroke-width:1;stroke-linecap:butt;stroke-linejoin:miter;stroke-miterlimit:4;stroke-dasharray:none;stroke-opacity:1" />
    <path
       sodipodi:nodetypes="cc"
       id="path936"
       d="m 141.81731,66.167946 2.96148,-6.72485"
       style="fill:none;stroke:#ff0000;stroke-width:1;stroke-linecap:butt;stroke-linejoin:miter;stroke-miterlimit:4;stroke-dasharray:none;stroke-opacity:1" />
    <path
       style="fill:none;stroke:#ff0000;stroke-width:1;stroke-linecap:butt;stroke-linejoin:miter;stroke-miterlimit:4;stroke-dasharray:none;stroke-opacity:1"
       d="m 147.74027,66.167946 -2.96148,-6.72485"
       id="path938"
       sodipodi:nodetypes="cc" />
    <text
       id="text942"
       y="56.71925"
       x="141.01677"
       style="font-weight:bold;font-size:5.29167px;line-height:1.25;font-family:sans-serif;-inkscape-font-specification:'sans-serif Bold';fill:#ff0000;stroke:#ff0000;stroke-width:0.264583"
       xml:space="preserve"><tspan
         style="font-size:10.5833px;fill:#ff0000;stroke:#ff0000;stroke-width:0.264583"
         y="56.71925"
         x="141.01677"
         id="tspan940"
         sodipodi:role="line">5</tspan></text>
    <path
       sodipodi:nodetypes="cc"
       id="path944"
       d="M 97.348025,194.34421 H 114.83588"
       style="fill:none;stroke:#ff0000;stroke-width:1;stroke-linecap:butt;stroke-linejoin:miter;stroke-miterlimit:4;stroke-dasharray:none;stroke-opacity:1" />
    <path
       sodipodi:nodetypes="cc"
       id="path946"
       d="m 108.11103,191.38273 6.72485,2.96148"
       style="fill:none;stroke:#ff0000;stroke-width:1;stroke-linecap:butt;stroke-linejoin:miter;stroke-miterlimit:4;stroke-dasharray:none;stroke-opacity:1" />
    <path
       style="fill:none;stroke:#ff0000;stroke-width:1;stroke-linecap:butt;stroke-linejoin:miter;stroke-miterlimit:4;stroke-dasharray:none;stroke-opacity:1"
       d="m 108.11103,197.30569 6.72485,-2.96148"
       id="path948"
       sodipodi:nodetypes="cc" />
    <text
       id="text952"
       y="198.18892"
       x="117.01055"
       style="font-weight:bold;font-size:5.29167px;line-height:1.25;font-family:sans-serif;-inkscape-font-specification:'sans-serif Bold';fill:#ff0000;stroke:#ff0000;stroke-width:0.264583"
       xml:space="preserve"><tspan
         style="font-size:10.5833px;fill:#ff0000;stroke:#ff0000;stroke-width:0.264583"
         y="198.18892"
         x="117.01055"
         id="tspan950"
         sodipodi:role="line">6</tspan></text>
    <path
       style="fill:none;stroke:#ff0000;stroke-width:1;stroke-linecap:butt;stroke-linejoin:miter;stroke-miterlimit:4;stroke-dasharray:none;stroke-opacity:1"
       d="M 95.064845,191.99373 V 174.50587"
       id="path954"
       sodipodi:nodetypes="cc" />
    <path
       style="fill:none;stroke:#ff0000;stroke-width:1;stroke-linecap:butt;stroke-linejoin:miter;stroke-miterlimit:4;stroke-dasharray:none;stroke-opacity:1"
       d="m 92.103365,181.23072 2.96148,-6.72485"
       id="path956"
       sodipodi:nodetypes="cc" />
    <path
       sodipodi:nodetypes="cc"
       id="path958"
       d="m 98.026325,181.23072 -2.96148,-6.72485"
       style="fill:none;stroke:#ff0000;stroke-width:1;stroke-linecap:butt;stroke-linejoin:miter;stroke-miterlimit:4;stroke-dasharray:none;stroke-opacity:1" />
    <text
       xml:space="preserve"
       style="font-weight:bold;font-size:5.29167px;line-height:1.25;font-family:sans-serif;-inkscape-font-specification:'sans-serif Bold';fill:#ff0000;stroke:#ff0000;stroke-width:0.264583"
       x="97.453758"
       y="175.95587"
       id="text962"><tspan
         sodipodi:role="line"
         id="tspan960"
         x="97.453758"
         y="175.95587"
         style="font-size:10.5833px;fill:#ff0000;stroke:#ff0000;stroke-width:0.264583">7</tspan></text>
    <text
       id="text966"
       y="156.68738"
       x="86.345665"
       style="font-weight:bold;font-size:5.29167px;line-height:1.25;font-family:sans-serif;-inkscape-font-specification:'sans-serif Bold';fill:#0000ff;stroke:#0000ff;stroke-width:0.264583"
       xml:space="preserve"><tspan
         style="font-size:10.5833px;fill:#0000ff;stroke:#0000ff;stroke-width:0.264583"
         y="156.68738"
         x="86.345665"
         id="tspan964"
         sodipodi:role="line">0</tspan></text>
    <rect
       style="opacity:1;fill:none;stroke:#0000ff;stroke-width:1;stroke-linejoin:round;stroke-miterlimit:4;stroke-dasharray:none;stop-color:#000000"
       id="rect968"
       width="10.193246"
       height="16.429972"
       x="84.871605"
       y="145.19098" />
    <rect
       y="90.6278"
       x="-65.44899"
       height="18.410851"
       width="10.948308"
       id="rect974"
       style="opacity:1;fill:none;stroke:#0000ff;stroke-width:1;stroke-linejoin:round;stroke-miterlimit:4;stroke-dasharray:none;stop-color:#000000"
       transform="rotate(-60.70739)"
       ry="0" />
    <text
       xml:space="preserve"
       style="font-weight:bold;font-size:5.29167px;line-height:1.25;font-family:sans-serif;-inkscape-font-specification:'sans-serif Bold';fill:#0000ff;stroke:#0000ff;stroke-width:0.264583"
       x="52.779804"
       y="104.23872"
       id="text978"><tspan
         sodipodi:role="line"
         id="tspan976"
         x="52.779804"
         y="104.23872"
         style="font-size:10.5833px;fill:#0000ff;stroke:#0000ff;stroke-width:0.264583">1</tspan></text>
    <rect
       ry="0"
       transform="rotate(-136.09759)"
       style="opacity:1;fill:none;stroke:#0000ff;stroke-width:1;stroke-linejoin:round;stroke-miterlimit:4;stroke-dasharray:none;stop-color:#000000"
       id="rect980"
       width="10.948308"
       height="18.410851"
       x="-159.02721"
       y="5.9293838" />
    <text
       xml:space="preserve"
       style="font-weight:bold;font-size:5.29167px;line-height:1.25;font-family:sans-serif;-inkscape-font-specification:'sans-serif Bold';fill:#0000ff;stroke:#0000ff;stroke-width:0.264583"
       x="117.2525"
       y="98.990349"
       id="text988"><tspan
         sodipodi:role="line"
         id="tspan986"
         x="117.2525"
         y="98.990349"
         style="font-size:10.5833px;fill:#0000ff;stroke:#0000ff;stroke-width:0.264583">2</tspan></text>
    <g
       id="g3149"
       ns56:jacobian_sqrt="1.05833"
       ns56:inkscapeversion="1.0"
       ns56:stroke-to-path="0"
       ns56:alignment="middle center"
       ns56:scale="3.0"
       ns56:preamble="C:\Users\USER\AppData\Roaming\inkscape\extensions\textext\default_packages.tex"
       ns56:text="\\begin{equation*}\n[K]=\\begin{bmatrix}\n[K_{ff}] &amp;  [K_{fs}] \\\\\n[K_{sf}] &amp; [K_{ss}] \\\\\n\\end{bmatrix}\n\\end{equation*}"
       ns56:pdfconverter="inkscape"
       ns56:texconverter="pdflatex"
       ns56:version="1.5.0"
       transform="matrix(1.05833,0,0,1.05833,46.3384,228.234)">
      <defs
         id="id-c81e8452-53e3-4d3b-b5b0-5855f69558de">
        <g
           id="id-6f1a2e59-9397-47d6-85c7-5214493afc41">
          <symbol
             overflow="visible"
             id="id-1ba1a5a1-a301-479c-b3f4-ef1f63d984f0">
            <path
               style="stroke:none"
               d=""
               id="id-8a34025a-5b93-42fe-ba16-1d47a01217c8" />
          </symbol>
          <symbol
             overflow="visible"
             id="id-f8f88945-16f4-4df9-a5c1-1973add20f49">
            <path
               style="stroke:none"
               d="M 2.546875,2.5 V 2.09375 h -0.96875 v -9.171875 h 0.96875 v -0.40625 h -1.375 V 2.5 Z m 0,0"
               id="id-88f8fd4b-cb10-4e43-8ece-271ffe963391" />
          </symbol>
          <symbol
             overflow="visible"
             id="id-bf1eb5bd-9f6f-4374-9924-001bce36e9f1">
            <path
               style="stroke:none"
               d="M 1.578125,-7.484375 H 0.21875 v 0.40625 H 1.1875 V 2.09375 H 0.21875 V 2.5 h 1.359375 z m 0,0"
               id="id-24c07cef-e144-437f-9365-d0c6e976c5b3" />
          </symbol>
          <symbol
             overflow="visible"
             id="id-e29b2238-147c-4a40-82a2-5ef57485ba5d">
            <path
               style="stroke:none"
               d="m 6.84375,-3.265625 c 0.15625,0 0.34375,0 0.34375,-0.1875 C 7.1875,-3.65625 7,-3.65625 6.859375,-3.65625 h -5.96875 c -0.140625,0 -0.328125,0 -0.328125,0.203125 0,0.1875 0.1875,0.1875 0.328125,0.1875 z m 0.015625,1.9375 c 0.140625,0 0.328125,0 0.328125,-0.203125 0,-0.1875 -0.1875,-0.1875 -0.34375,-0.1875 H 0.890625 c -0.140625,0 -0.328125,0 -0.328125,0.1875 0,0.203125 0.1875,0.203125 0.328125,0.203125 z m 0,0"
               id="id-0acb8381-62f0-46c2-ac1f-dd8c5d8eeafc" />
          </symbol>
          <symbol
             overflow="visible"
             id="id-4c3bd316-5553-406e-a784-b03169e1597a">
            <path
               style="stroke:none"
               d=""
               id="id-4eeacf9d-bce2-4f5d-a696-d045cebff174" />
          </symbol>
          <symbol
             overflow="visible"
             id="id-15597c5d-33b1-4488-9bc2-bd3bae740925">
            <path
               style="stroke:none"
               d="M 5.078125,-4.03125 C 5.0625,-4.0625 5.03125,-4.140625 5.03125,-4.171875 c 0,0 0.171875,-0.140625 0.28125,-0.21875 l 1.75,-1.34375 C 8,-6.4375 8.390625,-6.46875 8.6875,-6.5 8.765625,-6.515625 8.859375,-6.515625 8.859375,-6.703125 8.859375,-6.734375 8.828125,-6.8125 8.75,-6.8125 c -0.21875,0 -0.46875,0.03125 -0.703125,0.03125 -0.359375,0 -0.75,-0.03125 -1.109375,-0.03125 -0.0625,0 -0.1875,0 -0.1875,0.203125 0,0.0625 0.046875,0.09375 0.125,0.109375 0.21875,0.015625 0.296875,0.0625 0.296875,0.203125 0,0.1875 -0.296875,0.421875 -0.359375,0.46875 L 2.9375,-2.84375 3.734375,-6.046875 C 3.8125,-6.40625 3.84375,-6.5 4.5625,-6.5 c 0.25,0 0.34375,0 0.34375,-0.203125 0,-0.078125 -0.078125,-0.109375 -0.140625,-0.109375 -0.28125,0 -1,0.03125 -1.28125,0.03125 C 3.203125,-6.78125 2.5,-6.8125 2.203125,-6.8125 2.140625,-6.8125 2,-6.8125 2,-6.625 2,-6.5 2.09375,-6.5 2.296875,-6.5 c 0.125,0 0.3125,0.015625 0.421875,0.015625 0.15625,0.03125 0.21875,0.046875 0.21875,0.171875 0,0.03125 0,0.0625 -0.03125,0.1875 L 1.5625,-0.78125 c -0.09375,0.390625 -0.109375,0.46875 -0.90625,0.46875 -0.171875,0 -0.28125,0 -0.28125,0.1875 C 0.375,0 0.5,0 0.53125,0 0.8125,0 1.515625,-0.03125 1.796875,-0.03125 2,-0.03125 2.21875,-0.015625 2.4375,-0.015625 2.65625,-0.015625 2.875,0 3.078125,0 3.15625,0 3.28125,0 3.28125,-0.203125 3.28125,-0.3125 3.1875,-0.3125 3,-0.3125 c -0.375,0 -0.640625,0 -0.640625,-0.171875 0,-0.078125 0.046875,-0.296875 0.078125,-0.4375 C 2.578125,-1.453125 2.71875,-1.96875 2.84375,-2.5 l 1.484375,-1.15625 1.15625,2.6875 c 0.125,0.265625 0.125,0.296875 0.125,0.34375 0,0.3125 -0.4375,0.3125 -0.53125,0.3125 -0.109375,0 -0.21875,0 -0.21875,0.203125 C 4.859375,0 4.984375,0 5,0 5.40625,0 5.828125,-0.03125 6.21875,-0.03125 6.4375,-0.03125 6.984375,0 7.203125,0 7.25,0 7.375,0 7.375,-0.203125 7.375,-0.3125 7.265625,-0.3125 7.171875,-0.3125 c -0.40625,0 -0.53125,-0.09375 -0.6875,-0.4375 z m 0,0"
               id="id-299f2c57-74c7-4624-9142-f8633d8f55bd" />
          </symbol>
          <symbol
             overflow="visible"
             id="id-6f1a6b01-4d34-494e-81c8-ca12ad8a0b4b">
            <path
               style="stroke:none"
               d=""
               id="id-a608377d-fe52-4e07-a424-de923330098b" />
          </symbol>
          <symbol
             overflow="visible"
             id="id-11b09817-8e9f-432b-ac2b-129bee5b1dda">
            <path
               style="stroke:none"
               d="M 2.5,23.515625 H 5.109375 V 22.96875 h -2.0625 V 0.15625 h 2.0625 v -0.5625 H 2.5 Z m 0,0"
               id="id-40f7cd17-12b4-42e2-9684-39d34cd6fad1" />
          </symbol>
          <symbol
             overflow="visible"
             id="id-ae421295-0e56-493d-b407-61cfdc1ee34f">
            <path
               style="stroke:none"
               d="M 2.21875,22.96875 H 0.140625 v 0.546875 h 2.625 V -0.40625 h -2.625 v 0.5625 H 2.21875 Z m 0,0"
               id="id-58532d45-d006-4da0-b727-4f7acea64ed2" />
          </symbol>
          <symbol
             overflow="visible"
             id="id-6b5a1077-9f53-43cc-aed9-9dbded1d96ba">
            <path
               style="stroke:none"
               d=""
               id="id-7611fa71-9499-4730-a742-9a8df739fb7b" />
          </symbol>
          <symbol
             overflow="visible"
             id="id-98a60a0b-7bbc-49b9-abe0-8410d1c6a2d7">
            <path
               style="stroke:none"
               d="M 2.84375,-2.75 H 3.515625 C 3.65625,-2.75 3.75,-2.75 3.75,-2.90625 3.75,-3 3.65625,-3 3.53125,-3 H 2.890625 c 0.15625,-0.890625 0.203125,-1.203125 0.265625,-1.40625 0.03125,-0.15625 0.1875,-0.296875 0.359375,-0.296875 0,0 0.1875,0 0.328125,0.078125 -0.296875,0.09375 -0.3125,0.34375 -0.3125,0.375 0,0.15625 0.125,0.265625 0.28125,0.265625 0.1875,0 0.390625,-0.15625 0.390625,-0.421875 0,-0.328125 -0.328125,-0.5 -0.6875,-0.5 -0.3125,0 -0.65625,0.171875 -0.84375,0.515625 C 2.53125,-4.125 2.484375,-3.8125 2.328125,-3 H 1.78125 c -0.140625,0 -0.234375,0 -0.234375,0.15625 0,0.09375 0.09375,0.09375 0.21875,0.09375 H 2.28125 c 0,0.046875 -0.4375,2.546875 -0.609375,3.296875 -0.03125,0.15625 -0.15625,0.671875 -0.484375,0.671875 -0.015625,0 -0.171875,0 -0.3125,-0.078125 0.28125,-0.09375 0.3125,-0.34375 0.3125,-0.375 C 1.1875,0.609375 1.0625,0.5 0.90625,0.5 c -0.1875,0 -0.390625,0.15625 -0.390625,0.421875 0,0.3125 0.328125,0.5 0.671875,0.5 0.4375,0 0.75,-0.453125 0.828125,-0.609375 0.25,-0.46875 0.421875,-1.328125 0.4375,-1.40625 z m 0,0"
               id="id-a19f3b7a-63ad-4dc1-aad2-4397c83b4e05" />
          </symbol>
          <symbol
             overflow="visible"
             id="id-35c10e9a-d4f4-43ce-8a38-c2762b78fdd2">
            <path
               style="stroke:none"
               d="m 3,-2.625 c -0.171875,0.046875 -0.296875,0.1875 -0.296875,0.328125 0,0.171875 0.140625,0.234375 0.234375,0.234375 0.078125,0 0.34375,-0.046875 0.34375,-0.40625 0,-0.453125 -0.5,-0.609375 -0.9375,-0.609375 -1.078125,0 -1.28125,0.8125 -1.28125,1.015625 0,0.265625 0.15625,0.4375 0.25,0.515625 0.171875,0.140625 0.296875,0.171875 0.78125,0.25 0.15625,0.03125 0.59375,0.109375 0.59375,0.453125 0,0.125 -0.078125,0.390625 -0.359375,0.5625 C 2.046875,-0.125 1.703125,-0.125 1.625,-0.125 1.34375,-0.125 0.953125,-0.1875 0.78125,-0.421875 1.015625,-0.453125 1.171875,-0.625 1.171875,-0.8125 c 0,-0.171875 -0.125,-0.265625 -0.265625,-0.265625 -0.203125,0 -0.40625,0.171875 -0.40625,0.46875 0,0.421875 0.4375,0.671875 1.109375,0.671875 1.296875,0 1.53125,-0.875 1.53125,-1.140625 0,-0.640625 -0.703125,-0.765625 -0.96875,-0.8125 -0.0625,-0.015625 -0.234375,-0.046875 -0.28125,-0.0625 -0.25,-0.046875 -0.375,-0.1875 -0.375,-0.34375 0,-0.15625 0.125,-0.34375 0.28125,-0.453125 0.1875,-0.109375 0.421875,-0.125 0.546875,-0.125 0.140625,0 0.5,0.015625 0.65625,0.25 z m 0,0"
               id="id-fcfdc98f-7a32-4ae4-998a-af92734dd4af" />
          </symbol>
        </g>
      </defs>
      <g
         id="id-0fc89f5e-12d4-47b3-b6f5-b6d34c7b9efc"
         transform="translate(-259.186,-135.753)">
        <g
           style="fill:#000000;fill-opacity:1"
           id="id-cd67764c-3cb4-4201-953b-057541f08ea3">
          <g
             id="g3501"
             transform="translate(258.014,150.207)">
            <path
               style="stroke:none"
               d="M 2.546875,2.5 V 2.09375 h -0.96875 v -9.171875 h 0.96875 v -0.40625 h -1.375 V 2.5 Z m 0,0"
               id="id-715d2dca-f5ff-4c9a-b58b-e922de135637" />
          </g>
        </g>
        <g
           style="fill:#000000;fill-opacity:1"
           id="id-74684e3f-aa2e-4350-b98e-5f66ba0fadfb">
          <g
             id="g3505"
             transform="translate(260.782,150.207)">
            <path
               style="stroke:none"
               d="M 5.078125,-4.03125 C 5.0625,-4.0625 5.03125,-4.140625 5.03125,-4.171875 c 0,0 0.171875,-0.140625 0.28125,-0.21875 l 1.75,-1.34375 C 8,-6.4375 8.390625,-6.46875 8.6875,-6.5 8.765625,-6.515625 8.859375,-6.515625 8.859375,-6.703125 8.859375,-6.734375 8.828125,-6.8125 8.75,-6.8125 c -0.21875,0 -0.46875,0.03125 -0.703125,0.03125 -0.359375,0 -0.75,-0.03125 -1.109375,-0.03125 -0.0625,0 -0.1875,0 -0.1875,0.203125 0,0.0625 0.046875,0.09375 0.125,0.109375 0.21875,0.015625 0.296875,0.0625 0.296875,0.203125 0,0.1875 -0.296875,0.421875 -0.359375,0.46875 L 2.9375,-2.84375 3.734375,-6.046875 C 3.8125,-6.40625 3.84375,-6.5 4.5625,-6.5 c 0.25,0 0.34375,0 0.34375,-0.203125 0,-0.078125 -0.078125,-0.109375 -0.140625,-0.109375 -0.28125,0 -1,0.03125 -1.28125,0.03125 C 3.203125,-6.78125 2.5,-6.8125 2.203125,-6.8125 2.140625,-6.8125 2,-6.8125 2,-6.625 2,-6.5 2.09375,-6.5 2.296875,-6.5 c 0.125,0 0.3125,0.015625 0.421875,0.015625 0.15625,0.03125 0.21875,0.046875 0.21875,0.171875 0,0.03125 0,0.0625 -0.03125,0.1875 L 1.5625,-0.78125 c -0.09375,0.390625 -0.109375,0.46875 -0.90625,0.46875 -0.171875,0 -0.28125,0 -0.28125,0.1875 C 0.375,0 0.5,0 0.53125,0 0.8125,0 1.515625,-0.03125 1.796875,-0.03125 2,-0.03125 2.21875,-0.015625 2.4375,-0.015625 2.65625,-0.015625 2.875,0 3.078125,0 3.15625,0 3.28125,0 3.28125,-0.203125 3.28125,-0.3125 3.1875,-0.3125 3,-0.3125 c -0.375,0 -0.640625,0 -0.640625,-0.171875 0,-0.078125 0.046875,-0.296875 0.078125,-0.4375 C 2.578125,-1.453125 2.71875,-1.96875 2.84375,-2.5 l 1.484375,-1.15625 1.15625,2.6875 c 0.125,0.265625 0.125,0.296875 0.125,0.34375 0,0.3125 -0.4375,0.3125 -0.53125,0.3125 -0.109375,0 -0.21875,0 -0.21875,0.203125 C 4.859375,0 4.984375,0 5,0 5.40625,0 5.828125,-0.03125 6.21875,-0.03125 6.4375,-0.03125 6.984375,0 7.203125,0 7.25,0 7.375,0 7.375,-0.203125 7.375,-0.3125 7.265625,-0.3125 7.171875,-0.3125 c -0.40625,0 -0.53125,-0.09375 -0.6875,-0.4375 z m 0,0"
               id="id-8281f18d-cf9b-43ee-9095-2e0f11b0577e" />
          </g>
        </g>
        <g
           style="fill:#000000;fill-opacity:1"
           id="id-1d8d91a0-b062-4019-9272-d1355db58f96">
          <g
             id="g3509"
             transform="translate(269.956,150.207)">
            <path
               style="stroke:none"
               d="M 1.578125,-7.484375 H 0.21875 v 0.40625 H 1.1875 V 2.09375 H 0.21875 V 2.5 h 1.359375 z m 0,0"
               id="id-d550645f-082f-4e94-8f95-a66bb299a0b3" />
          </g>
        </g>
        <g
           style="fill:#000000;fill-opacity:1"
           id="id-60ab0f01-e7bd-4e68-b973-28ffd7b09374">
          <g
             id="g3513"
             transform="translate(275.493,150.207)">
            <path
               style="stroke:none"
               d="m 6.84375,-3.265625 c 0.15625,0 0.34375,0 0.34375,-0.1875 C 7.1875,-3.65625 7,-3.65625 6.859375,-3.65625 h -5.96875 c -0.140625,0 -0.328125,0 -0.328125,0.203125 0,0.1875 0.1875,0.1875 0.328125,0.1875 z m 0.015625,1.9375 c 0.140625,0 0.328125,0 0.328125,-0.203125 0,-0.1875 -0.1875,-0.1875 -0.34375,-0.1875 H 0.890625 c -0.140625,0 -0.328125,0 -0.328125,0.1875 0,0.203125 0.1875,0.203125 0.328125,0.203125 z m 0,0"
               id="id-2fd3d614-91a6-4038-96b9-e8e7ac52ab7e" />
          </g>
        </g>
        <g
           style="fill:#000000;fill-opacity:1"
           id="id-4023c6fa-2158-4c13-bd07-f22a2f2e5fe4">
          <g
             id="g3517"
             transform="translate(286.006,136.159)">
            <path
               style="stroke:none"
               d="M 2.5,23.515625 H 5.109375 V 22.96875 h -2.0625 V 0.15625 h 2.0625 v -0.5625 H 2.5 Z m 0,0"
               id="id-d6282377-ef70-4174-8ea3-0e49733929dd" />
          </g>
        </g>
        <g
           style="fill:#000000;fill-opacity:1"
           id="id-76d424e2-4e01-4b54-9898-0a20aa5373f6">
          <g
             id="g3521"
             transform="translate(291.264,144.13)">
            <path
               style="stroke:none"
               d="M 2.546875,2.5 V 2.09375 h -0.96875 v -9.171875 h 0.96875 v -0.40625 h -1.375 V 2.5 Z m 0,0"
               id="id-1c46f4a1-788d-418f-9702-48a6c924a95a" />
          </g>
        </g>
        <g
           style="fill:#000000;fill-opacity:1"
           id="id-ca8879c0-5b17-45a0-a682-4e9ffe84fd9a">
          <g
             id="g3525"
             transform="translate(294.032,144.13)">
            <path
               style="stroke:none"
               d="M 5.078125,-4.03125 C 5.0625,-4.0625 5.03125,-4.140625 5.03125,-4.171875 c 0,0 0.171875,-0.140625 0.28125,-0.21875 l 1.75,-1.34375 C 8,-6.4375 8.390625,-6.46875 8.6875,-6.5 8.765625,-6.515625 8.859375,-6.515625 8.859375,-6.703125 8.859375,-6.734375 8.828125,-6.8125 8.75,-6.8125 c -0.21875,0 -0.46875,0.03125 -0.703125,0.03125 -0.359375,0 -0.75,-0.03125 -1.109375,-0.03125 -0.0625,0 -0.1875,0 -0.1875,0.203125 0,0.0625 0.046875,0.09375 0.125,0.109375 0.21875,0.015625 0.296875,0.0625 0.296875,0.203125 0,0.1875 -0.296875,0.421875 -0.359375,0.46875 L 2.9375,-2.84375 3.734375,-6.046875 C 3.8125,-6.40625 3.84375,-6.5 4.5625,-6.5 c 0.25,0 0.34375,0 0.34375,-0.203125 0,-0.078125 -0.078125,-0.109375 -0.140625,-0.109375 -0.28125,0 -1,0.03125 -1.28125,0.03125 C 3.203125,-6.78125 2.5,-6.8125 2.203125,-6.8125 2.140625,-6.8125 2,-6.8125 2,-6.625 2,-6.5 2.09375,-6.5 2.296875,-6.5 c 0.125,0 0.3125,0.015625 0.421875,0.015625 0.15625,0.03125 0.21875,0.046875 0.21875,0.171875 0,0.03125 0,0.0625 -0.03125,0.1875 L 1.5625,-0.78125 c -0.09375,0.390625 -0.109375,0.46875 -0.90625,0.46875 -0.171875,0 -0.28125,0 -0.28125,0.1875 C 0.375,0 0.5,0 0.53125,0 0.8125,0 1.515625,-0.03125 1.796875,-0.03125 2,-0.03125 2.21875,-0.015625 2.4375,-0.015625 2.65625,-0.015625 2.875,0 3.078125,0 3.15625,0 3.28125,0 3.28125,-0.203125 3.28125,-0.3125 3.1875,-0.3125 3,-0.3125 c -0.375,0 -0.640625,0 -0.640625,-0.171875 0,-0.078125 0.046875,-0.296875 0.078125,-0.4375 C 2.578125,-1.453125 2.71875,-1.96875 2.84375,-2.5 l 1.484375,-1.15625 1.15625,2.6875 c 0.125,0.265625 0.125,0.296875 0.125,0.34375 0,0.3125 -0.4375,0.3125 -0.53125,0.3125 -0.109375,0 -0.21875,0 -0.21875,0.203125 C 4.859375,0 4.984375,0 5,0 5.40625,0 5.828125,-0.03125 6.21875,-0.03125 6.4375,-0.03125 6.984375,0 7.203125,0 7.25,0 7.375,0 7.375,-0.203125 7.375,-0.3125 7.265625,-0.3125 7.171875,-0.3125 c -0.40625,0 -0.53125,-0.09375 -0.6875,-0.4375 z m 0,0"
               id="id-e2b5de2a-f22b-48b9-a32a-47351bfea43a" />
          </g>
        </g>
        <g
           style="fill:#000000;fill-opacity:1"
           id="id-238c1ff8-ae6a-4575-983c-369de04e29cf">
          <g
             id="g3529"
             transform="translate(302.493,145.624)">
            <path
               style="stroke:none"
               d="M 2.84375,-2.75 H 3.515625 C 3.65625,-2.75 3.75,-2.75 3.75,-2.90625 3.75,-3 3.65625,-3 3.53125,-3 H 2.890625 c 0.15625,-0.890625 0.203125,-1.203125 0.265625,-1.40625 0.03125,-0.15625 0.1875,-0.296875 0.359375,-0.296875 0,0 0.1875,0 0.328125,0.078125 -0.296875,0.09375 -0.3125,0.34375 -0.3125,0.375 0,0.15625 0.125,0.265625 0.28125,0.265625 0.1875,0 0.390625,-0.15625 0.390625,-0.421875 0,-0.328125 -0.328125,-0.5 -0.6875,-0.5 -0.3125,0 -0.65625,0.171875 -0.84375,0.515625 C 2.53125,-4.125 2.484375,-3.8125 2.328125,-3 H 1.78125 c -0.140625,0 -0.234375,0 -0.234375,0.15625 0,0.09375 0.09375,0.09375 0.21875,0.09375 H 2.28125 c 0,0.046875 -0.4375,2.546875 -0.609375,3.296875 -0.03125,0.15625 -0.15625,0.671875 -0.484375,0.671875 -0.015625,0 -0.171875,0 -0.3125,-0.078125 0.28125,-0.09375 0.3125,-0.34375 0.3125,-0.375 C 1.1875,0.609375 1.0625,0.5 0.90625,0.5 c -0.1875,0 -0.390625,0.15625 -0.390625,0.421875 0,0.3125 0.328125,0.5 0.671875,0.5 0.4375,0 0.75,-0.453125 0.828125,-0.609375 0.25,-0.46875 0.421875,-1.328125 0.4375,-1.40625 z m 0,0"
               id="id-24d7baff-9318-422b-bf67-eb6ff976c3de" />
          </g>
        </g>
        <g
           style="fill:#000000;fill-opacity:1"
           id="id-3c831f78-6fb7-4721-84c6-0194083f724e">
          <g
             id="g3533"
             transform="translate(307.159,145.624)">
            <path
               style="stroke:none"
               d="M 2.84375,-2.75 H 3.515625 C 3.65625,-2.75 3.75,-2.75 3.75,-2.90625 3.75,-3 3.65625,-3 3.53125,-3 H 2.890625 c 0.15625,-0.890625 0.203125,-1.203125 0.265625,-1.40625 0.03125,-0.15625 0.1875,-0.296875 0.359375,-0.296875 0,0 0.1875,0 0.328125,0.078125 -0.296875,0.09375 -0.3125,0.34375 -0.3125,0.375 0,0.15625 0.125,0.265625 0.28125,0.265625 0.1875,0 0.390625,-0.15625 0.390625,-0.421875 0,-0.328125 -0.328125,-0.5 -0.6875,-0.5 -0.3125,0 -0.65625,0.171875 -0.84375,0.515625 C 2.53125,-4.125 2.484375,-3.8125 2.328125,-3 H 1.78125 c -0.140625,0 -0.234375,0 -0.234375,0.15625 0,0.09375 0.09375,0.09375 0.21875,0.09375 H 2.28125 c 0,0.046875 -0.4375,2.546875 -0.609375,3.296875 -0.03125,0.15625 -0.15625,0.671875 -0.484375,0.671875 -0.015625,0 -0.171875,0 -0.3125,-0.078125 0.28125,-0.09375 0.3125,-0.34375 0.3125,-0.375 C 1.1875,0.609375 1.0625,0.5 0.90625,0.5 c -0.1875,0 -0.390625,0.15625 -0.390625,0.421875 0,0.3125 0.328125,0.5 0.671875,0.5 0.4375,0 0.75,-0.453125 0.828125,-0.609375 0.25,-0.46875 0.421875,-1.328125 0.4375,-1.40625 z m 0,0"
               id="id-a69aa64a-c33c-40b9-b977-3f9dfbbd6c5b" />
          </g>
        </g>
        <g
           style="fill:#000000;fill-opacity:1"
           id="id-7075d487-0dea-4a82-bbb3-77f20ff1640c">
          <g
             id="g3537"
             transform="translate(312.324,144.13)">
            <path
               style="stroke:none"
               d="M 1.578125,-7.484375 H 0.21875 v 0.40625 H 1.1875 V 2.09375 H 0.21875 V 2.5 h 1.359375 z m 0,0"
               id="id-96065d90-00ff-4ff6-8d46-eeffd4115233" />
          </g>
        </g>
        <g
           style="fill:#000000;fill-opacity:1"
           id="id-1b0324b2-b34e-4cfc-af08-35a1974ae3b6">
          <g
             id="g3541"
             transform="translate(325.054,144.13)">
            <path
               style="stroke:none"
               d="M 2.546875,2.5 V 2.09375 h -0.96875 v -9.171875 h 0.96875 v -0.40625 h -1.375 V 2.5 Z m 0,0"
               id="id-981a1794-6184-4e65-b484-b7d61dcc0f2d" />
          </g>
        </g>
        <g
           style="fill:#000000;fill-opacity:1"
           id="id-09f7ff09-6e61-4052-baf5-76c699fede53">
          <g
             id="g3545"
             transform="translate(327.822,144.13)">
            <path
               style="stroke:none"
               d="M 5.078125,-4.03125 C 5.0625,-4.0625 5.03125,-4.140625 5.03125,-4.171875 c 0,0 0.171875,-0.140625 0.28125,-0.21875 l 1.75,-1.34375 C 8,-6.4375 8.390625,-6.46875 8.6875,-6.5 8.765625,-6.515625 8.859375,-6.515625 8.859375,-6.703125 8.859375,-6.734375 8.828125,-6.8125 8.75,-6.8125 c -0.21875,0 -0.46875,0.03125 -0.703125,0.03125 -0.359375,0 -0.75,-0.03125 -1.109375,-0.03125 -0.0625,0 -0.1875,0 -0.1875,0.203125 0,0.0625 0.046875,0.09375 0.125,0.109375 0.21875,0.015625 0.296875,0.0625 0.296875,0.203125 0,0.1875 -0.296875,0.421875 -0.359375,0.46875 L 2.9375,-2.84375 3.734375,-6.046875 C 3.8125,-6.40625 3.84375,-6.5 4.5625,-6.5 c 0.25,0 0.34375,0 0.34375,-0.203125 0,-0.078125 -0.078125,-0.109375 -0.140625,-0.109375 -0.28125,0 -1,0.03125 -1.28125,0.03125 C 3.203125,-6.78125 2.5,-6.8125 2.203125,-6.8125 2.140625,-6.8125 2,-6.8125 2,-6.625 2,-6.5 2.09375,-6.5 2.296875,-6.5 c 0.125,0 0.3125,0.015625 0.421875,0.015625 0.15625,0.03125 0.21875,0.046875 0.21875,0.171875 0,0.03125 0,0.0625 -0.03125,0.1875 L 1.5625,-0.78125 c -0.09375,0.390625 -0.109375,0.46875 -0.90625,0.46875 -0.171875,0 -0.28125,0 -0.28125,0.1875 C 0.375,0 0.5,0 0.53125,0 0.8125,0 1.515625,-0.03125 1.796875,-0.03125 2,-0.03125 2.21875,-0.015625 2.4375,-0.015625 2.65625,-0.015625 2.875,0 3.078125,0 3.15625,0 3.28125,0 3.28125,-0.203125 3.28125,-0.3125 3.1875,-0.3125 3,-0.3125 c -0.375,0 -0.640625,0 -0.640625,-0.171875 0,-0.078125 0.046875,-0.296875 0.078125,-0.4375 C 2.578125,-1.453125 2.71875,-1.96875 2.84375,-2.5 l 1.484375,-1.15625 1.15625,2.6875 c 0.125,0.265625 0.125,0.296875 0.125,0.34375 0,0.3125 -0.4375,0.3125 -0.53125,0.3125 -0.109375,0 -0.21875,0 -0.21875,0.203125 C 4.859375,0 4.984375,0 5,0 5.40625,0 5.828125,-0.03125 6.21875,-0.03125 6.4375,-0.03125 6.984375,0 7.203125,0 7.25,0 7.375,0 7.375,-0.203125 7.375,-0.3125 7.265625,-0.3125 7.171875,-0.3125 c -0.40625,0 -0.53125,-0.09375 -0.6875,-0.4375 z m 0,0"
               id="id-bb7b1d69-3af0-4253-b8a7-ea5b045ceb2d" />
          </g>
        </g>
        <g
           style="fill:#000000;fill-opacity:1"
           id="id-83c0dc2a-e76f-44df-90b4-e90c1e40774f">
          <g
             id="g3549"
             transform="translate(336.283,145.624)">
            <path
               style="stroke:none"
               d="M 2.84375,-2.75 H 3.515625 C 3.65625,-2.75 3.75,-2.75 3.75,-2.90625 3.75,-3 3.65625,-3 3.53125,-3 H 2.890625 c 0.15625,-0.890625 0.203125,-1.203125 0.265625,-1.40625 0.03125,-0.15625 0.1875,-0.296875 0.359375,-0.296875 0,0 0.1875,0 0.328125,0.078125 -0.296875,0.09375 -0.3125,0.34375 -0.3125,0.375 0,0.15625 0.125,0.265625 0.28125,0.265625 0.1875,0 0.390625,-0.15625 0.390625,-0.421875 0,-0.328125 -0.328125,-0.5 -0.6875,-0.5 -0.3125,0 -0.65625,0.171875 -0.84375,0.515625 C 2.53125,-4.125 2.484375,-3.8125 2.328125,-3 H 1.78125 c -0.140625,0 -0.234375,0 -0.234375,0.15625 0,0.09375 0.09375,0.09375 0.21875,0.09375 H 2.28125 c 0,0.046875 -0.4375,2.546875 -0.609375,3.296875 -0.03125,0.15625 -0.15625,0.671875 -0.484375,0.671875 -0.015625,0 -0.171875,0 -0.3125,-0.078125 0.28125,-0.09375 0.3125,-0.34375 0.3125,-0.375 C 1.1875,0.609375 1.0625,0.5 0.90625,0.5 c -0.1875,0 -0.390625,0.15625 -0.390625,0.421875 0,0.3125 0.328125,0.5 0.671875,0.5 0.4375,0 0.75,-0.453125 0.828125,-0.609375 0.25,-0.46875 0.421875,-1.328125 0.4375,-1.40625 z m 0,0"
               id="id-565ab7f8-3e0b-4738-88d3-87db772a80d3" />
          </g>
        </g>
        <g
           style="fill:#000000;fill-opacity:1"
           id="id-f0066649-3bf0-4d2c-abfd-1df32f3838ee">
          <g
             id="g3553"
             transform="translate(340.949,145.624)">
            <path
               style="stroke:none"
               d="m 3,-2.625 c -0.171875,0.046875 -0.296875,0.1875 -0.296875,0.328125 0,0.171875 0.140625,0.234375 0.234375,0.234375 0.078125,0 0.34375,-0.046875 0.34375,-0.40625 0,-0.453125 -0.5,-0.609375 -0.9375,-0.609375 -1.078125,0 -1.28125,0.8125 -1.28125,1.015625 0,0.265625 0.15625,0.4375 0.25,0.515625 0.171875,0.140625 0.296875,0.171875 0.78125,0.25 0.15625,0.03125 0.59375,0.109375 0.59375,0.453125 0,0.125 -0.078125,0.390625 -0.359375,0.5625 C 2.046875,-0.125 1.703125,-0.125 1.625,-0.125 1.34375,-0.125 0.953125,-0.1875 0.78125,-0.421875 1.015625,-0.453125 1.171875,-0.625 1.171875,-0.8125 c 0,-0.171875 -0.125,-0.265625 -0.265625,-0.265625 -0.203125,0 -0.40625,0.171875 -0.40625,0.46875 0,0.421875 0.4375,0.671875 1.109375,0.671875 1.296875,0 1.53125,-0.875 1.53125,-1.140625 0,-0.640625 -0.703125,-0.765625 -0.96875,-0.8125 -0.0625,-0.015625 -0.234375,-0.046875 -0.28125,-0.0625 -0.25,-0.046875 -0.375,-0.1875 -0.375,-0.34375 0,-0.15625 0.125,-0.34375 0.28125,-0.453125 0.1875,-0.109375 0.421875,-0.125 0.546875,-0.125 0.140625,0 0.5,0.015625 0.65625,0.25 z m 0,0"
               id="id-e7b4ce5f-d323-4bad-8174-24d623a780fd" />
          </g>
        </g>
        <g
           style="fill:#000000;fill-opacity:1"
           id="id-83c4dbc6-56e0-4544-89f8-28a72c56b6fe">
          <g
             id="g3557"
             transform="translate(345.208,144.13)">
            <path
               style="stroke:none"
               d="M 1.578125,-7.484375 H 0.21875 v 0.40625 H 1.1875 V 2.09375 H 0.21875 V 2.5 h 1.359375 z m 0,0"
               id="id-54beafc7-feb3-42d8-ac35-6dd48d10f37a" />
          </g>
        </g>
        <g
           style="fill:#000000;fill-opacity:1"
           id="id-0367c2dd-6e0c-4761-9baf-75c46979d905">
          <g
             id="g3561"
             transform="translate(291.718,156.085)">
            <path
               style="stroke:none"
               d="M 2.546875,2.5 V 2.09375 h -0.96875 v -9.171875 h 0.96875 v -0.40625 h -1.375 V 2.5 Z m 0,0"
               id="id-6d73d374-6d4c-4930-8650-2851e1465be3" />
          </g>
        </g>
        <g
           style="fill:#000000;fill-opacity:1"
           id="id-3fd003c7-ac4f-43b3-b885-21a0177759a3">
          <g
             id="g3565"
             transform="translate(294.485,156.085)">
            <path
               style="stroke:none"
               d="M 5.078125,-4.03125 C 5.0625,-4.0625 5.03125,-4.140625 5.03125,-4.171875 c 0,0 0.171875,-0.140625 0.28125,-0.21875 l 1.75,-1.34375 C 8,-6.4375 8.390625,-6.46875 8.6875,-6.5 8.765625,-6.515625 8.859375,-6.515625 8.859375,-6.703125 8.859375,-6.734375 8.828125,-6.8125 8.75,-6.8125 c -0.21875,0 -0.46875,0.03125 -0.703125,0.03125 -0.359375,0 -0.75,-0.03125 -1.109375,-0.03125 -0.0625,0 -0.1875,0 -0.1875,0.203125 0,0.0625 0.046875,0.09375 0.125,0.109375 0.21875,0.015625 0.296875,0.0625 0.296875,0.203125 0,0.1875 -0.296875,0.421875 -0.359375,0.46875 L 2.9375,-2.84375 3.734375,-6.046875 C 3.8125,-6.40625 3.84375,-6.5 4.5625,-6.5 c 0.25,0 0.34375,0 0.34375,-0.203125 0,-0.078125 -0.078125,-0.109375 -0.140625,-0.109375 -0.28125,0 -1,0.03125 -1.28125,0.03125 C 3.203125,-6.78125 2.5,-6.8125 2.203125,-6.8125 2.140625,-6.8125 2,-6.8125 2,-6.625 2,-6.5 2.09375,-6.5 2.296875,-6.5 c 0.125,0 0.3125,0.015625 0.421875,0.015625 0.15625,0.03125 0.21875,0.046875 0.21875,0.171875 0,0.03125 0,0.0625 -0.03125,0.1875 L 1.5625,-0.78125 c -0.09375,0.390625 -0.109375,0.46875 -0.90625,0.46875 -0.171875,0 -0.28125,0 -0.28125,0.1875 C 0.375,0 0.5,0 0.53125,0 0.8125,0 1.515625,-0.03125 1.796875,-0.03125 2,-0.03125 2.21875,-0.015625 2.4375,-0.015625 2.65625,-0.015625 2.875,0 3.078125,0 3.15625,0 3.28125,0 3.28125,-0.203125 3.28125,-0.3125 3.1875,-0.3125 3,-0.3125 c -0.375,0 -0.640625,0 -0.640625,-0.171875 0,-0.078125 0.046875,-0.296875 0.078125,-0.4375 C 2.578125,-1.453125 2.71875,-1.96875 2.84375,-2.5 l 1.484375,-1.15625 1.15625,2.6875 c 0.125,0.265625 0.125,0.296875 0.125,0.34375 0,0.3125 -0.4375,0.3125 -0.53125,0.3125 -0.109375,0 -0.21875,0 -0.21875,0.203125 C 4.859375,0 4.984375,0 5,0 5.40625,0 5.828125,-0.03125 6.21875,-0.03125 6.4375,-0.03125 6.984375,0 7.203125,0 7.25,0 7.375,0 7.375,-0.203125 7.375,-0.3125 7.265625,-0.3125 7.171875,-0.3125 c -0.40625,0 -0.53125,-0.09375 -0.6875,-0.4375 z m 0,0"
               id="id-e5d2cbcd-e99a-4081-b2b8-add672184ece" />
          </g>
        </g>
        <g
           style="fill:#000000;fill-opacity:1"
           id="id-04eb7f44-6520-4374-90a3-d442ca0767bb">
          <g
             id="g3569"
             transform="translate(302.946,157.579)">
            <path
               style="stroke:none"
               d="m 3,-2.625 c -0.171875,0.046875 -0.296875,0.1875 -0.296875,0.328125 0,0.171875 0.140625,0.234375 0.234375,0.234375 0.078125,0 0.34375,-0.046875 0.34375,-0.40625 0,-0.453125 -0.5,-0.609375 -0.9375,-0.609375 -1.078125,0 -1.28125,0.8125 -1.28125,1.015625 0,0.265625 0.15625,0.4375 0.25,0.515625 0.171875,0.140625 0.296875,0.171875 0.78125,0.25 0.15625,0.03125 0.59375,0.109375 0.59375,0.453125 0,0.125 -0.078125,0.390625 -0.359375,0.5625 C 2.046875,-0.125 1.703125,-0.125 1.625,-0.125 1.34375,-0.125 0.953125,-0.1875 0.78125,-0.421875 1.015625,-0.453125 1.171875,-0.625 1.171875,-0.8125 c 0,-0.171875 -0.125,-0.265625 -0.265625,-0.265625 -0.203125,0 -0.40625,0.171875 -0.40625,0.46875 0,0.421875 0.4375,0.671875 1.109375,0.671875 1.296875,0 1.53125,-0.875 1.53125,-1.140625 0,-0.640625 -0.703125,-0.765625 -0.96875,-0.8125 -0.0625,-0.015625 -0.234375,-0.046875 -0.28125,-0.0625 -0.25,-0.046875 -0.375,-0.1875 -0.375,-0.34375 0,-0.15625 0.125,-0.34375 0.28125,-0.453125 0.1875,-0.109375 0.421875,-0.125 0.546875,-0.125 0.140625,0 0.5,0.015625 0.65625,0.25 z m 0,0"
               id="id-4d202cf1-c20a-4d93-be4c-047a1ebc03d3" />
          </g>
          <g
             id="g3572"
             transform="translate(306.706,157.579)">
            <path
               style="stroke:none"
               d="M 2.84375,-2.75 H 3.515625 C 3.65625,-2.75 3.75,-2.75 3.75,-2.90625 3.75,-3 3.65625,-3 3.53125,-3 H 2.890625 c 0.15625,-0.890625 0.203125,-1.203125 0.265625,-1.40625 0.03125,-0.15625 0.1875,-0.296875 0.359375,-0.296875 0,0 0.1875,0 0.328125,0.078125 -0.296875,0.09375 -0.3125,0.34375 -0.3125,0.375 0,0.15625 0.125,0.265625 0.28125,0.265625 0.1875,0 0.390625,-0.15625 0.390625,-0.421875 0,-0.328125 -0.328125,-0.5 -0.6875,-0.5 -0.3125,0 -0.65625,0.171875 -0.84375,0.515625 C 2.53125,-4.125 2.484375,-3.8125 2.328125,-3 H 1.78125 c -0.140625,0 -0.234375,0 -0.234375,0.15625 0,0.09375 0.09375,0.09375 0.21875,0.09375 H 2.28125 c 0,0.046875 -0.4375,2.546875 -0.609375,3.296875 -0.03125,0.15625 -0.15625,0.671875 -0.484375,0.671875 -0.015625,0 -0.171875,0 -0.3125,-0.078125 0.28125,-0.09375 0.3125,-0.34375 0.3125,-0.375 C 1.1875,0.609375 1.0625,0.5 0.90625,0.5 c -0.1875,0 -0.390625,0.15625 -0.390625,0.421875 0,0.3125 0.328125,0.5 0.671875,0.5 0.4375,0 0.75,-0.453125 0.828125,-0.609375 0.25,-0.46875 0.421875,-1.328125 0.4375,-1.40625 z m 0,0"
               id="id-7664e04b-a82b-40be-a159-6eb69c5474cb" />
          </g>
        </g>
        <g
           style="fill:#000000;fill-opacity:1"
           id="id-c4d8ebb8-c8d5-4f22-a4f8-756304173091">
          <g
             id="g3576"
             transform="translate(311.871,156.085)">
            <path
               style="stroke:none"
               d="M 1.578125,-7.484375 H 0.21875 v 0.40625 H 1.1875 V 2.09375 H 0.21875 V 2.5 h 1.359375 z m 0,0"
               id="id-a002881a-c2e2-42e3-aa30-5a497a01a8a9" />
          </g>
        </g>
        <g
           style="fill:#000000;fill-opacity:1"
           id="id-a8488059-e07f-4935-b265-cdbff849d7cd">
          <g
             id="g3580"
             transform="translate(325.508,156.085)">
            <path
               style="stroke:none"
               d="M 2.546875,2.5 V 2.09375 h -0.96875 v -9.171875 h 0.96875 v -0.40625 h -1.375 V 2.5 Z m 0,0"
               id="id-2f4c349d-2f6f-4f36-959d-ea33f3f09aed" />
          </g>
        </g>
        <g
           style="fill:#000000;fill-opacity:1"
           id="id-883c97db-8d84-4b1e-aa40-460812b219ae">
          <g
             id="g3584"
             transform="translate(328.275,156.085)">
            <path
               style="stroke:none"
               d="M 5.078125,-4.03125 C 5.0625,-4.0625 5.03125,-4.140625 5.03125,-4.171875 c 0,0 0.171875,-0.140625 0.28125,-0.21875 l 1.75,-1.34375 C 8,-6.4375 8.390625,-6.46875 8.6875,-6.5 8.765625,-6.515625 8.859375,-6.515625 8.859375,-6.703125 8.859375,-6.734375 8.828125,-6.8125 8.75,-6.8125 c -0.21875,0 -0.46875,0.03125 -0.703125,0.03125 -0.359375,0 -0.75,-0.03125 -1.109375,-0.03125 -0.0625,0 -0.1875,0 -0.1875,0.203125 0,0.0625 0.046875,0.09375 0.125,0.109375 0.21875,0.015625 0.296875,0.0625 0.296875,0.203125 0,0.1875 -0.296875,0.421875 -0.359375,0.46875 L 2.9375,-2.84375 3.734375,-6.046875 C 3.8125,-6.40625 3.84375,-6.5 4.5625,-6.5 c 0.25,0 0.34375,0 0.34375,-0.203125 0,-0.078125 -0.078125,-0.109375 -0.140625,-0.109375 -0.28125,0 -1,0.03125 -1.28125,0.03125 C 3.203125,-6.78125 2.5,-6.8125 2.203125,-6.8125 2.140625,-6.8125 2,-6.8125 2,-6.625 2,-6.5 2.09375,-6.5 2.296875,-6.5 c 0.125,0 0.3125,0.015625 0.421875,0.015625 0.15625,0.03125 0.21875,0.046875 0.21875,0.171875 0,0.03125 0,0.0625 -0.03125,0.1875 L 1.5625,-0.78125 c -0.09375,0.390625 -0.109375,0.46875 -0.90625,0.46875 -0.171875,0 -0.28125,0 -0.28125,0.1875 C 0.375,0 0.5,0 0.53125,0 0.8125,0 1.515625,-0.03125 1.796875,-0.03125 2,-0.03125 2.21875,-0.015625 2.4375,-0.015625 2.65625,-0.015625 2.875,0 3.078125,0 3.15625,0 3.28125,0 3.28125,-0.203125 3.28125,-0.3125 3.1875,-0.3125 3,-0.3125 c -0.375,0 -0.640625,0 -0.640625,-0.171875 0,-0.078125 0.046875,-0.296875 0.078125,-0.4375 C 2.578125,-1.453125 2.71875,-1.96875 2.84375,-2.5 l 1.484375,-1.15625 1.15625,2.6875 c 0.125,0.265625 0.125,0.296875 0.125,0.34375 0,0.3125 -0.4375,0.3125 -0.53125,0.3125 -0.109375,0 -0.21875,0 -0.21875,0.203125 C 4.859375,0 4.984375,0 5,0 5.40625,0 5.828125,-0.03125 6.21875,-0.03125 6.4375,-0.03125 6.984375,0 7.203125,0 7.25,0 7.375,0 7.375,-0.203125 7.375,-0.3125 7.265625,-0.3125 7.171875,-0.3125 c -0.40625,0 -0.53125,-0.09375 -0.6875,-0.4375 z m 0,0"
               id="id-145d3280-114a-4e53-bce9-2262b06ebb2a" />
          </g>
        </g>
        <g
           style="fill:#000000;fill-opacity:1"
           id="id-5f04dd0e-31df-4528-a78f-e2127dba7148">
          <g
             id="g3588"
             transform="translate(336.736,157.579)">
            <path
               style="stroke:none"
               d="m 3,-2.625 c -0.171875,0.046875 -0.296875,0.1875 -0.296875,0.328125 0,0.171875 0.140625,0.234375 0.234375,0.234375 0.078125,0 0.34375,-0.046875 0.34375,-0.40625 0,-0.453125 -0.5,-0.609375 -0.9375,-0.609375 -1.078125,0 -1.28125,0.8125 -1.28125,1.015625 0,0.265625 0.15625,0.4375 0.25,0.515625 0.171875,0.140625 0.296875,0.171875 0.78125,0.25 0.15625,0.03125 0.59375,0.109375 0.59375,0.453125 0,0.125 -0.078125,0.390625 -0.359375,0.5625 C 2.046875,-0.125 1.703125,-0.125 1.625,-0.125 1.34375,-0.125 0.953125,-0.1875 0.78125,-0.421875 1.015625,-0.453125 1.171875,-0.625 1.171875,-0.8125 c 0,-0.171875 -0.125,-0.265625 -0.265625,-0.265625 -0.203125,0 -0.40625,0.171875 -0.40625,0.46875 0,0.421875 0.4375,0.671875 1.109375,0.671875 1.296875,0 1.53125,-0.875 1.53125,-1.140625 0,-0.640625 -0.703125,-0.765625 -0.96875,-0.8125 -0.0625,-0.015625 -0.234375,-0.046875 -0.28125,-0.0625 -0.25,-0.046875 -0.375,-0.1875 -0.375,-0.34375 0,-0.15625 0.125,-0.34375 0.28125,-0.453125 0.1875,-0.109375 0.421875,-0.125 0.546875,-0.125 0.140625,0 0.5,0.015625 0.65625,0.25 z m 0,0"
               id="id-fb224539-a0b7-4d25-98e9-8874780addb2" />
          </g>
          <g
             id="g3591"
             transform="translate(340.496,157.579)">
            <path
               style="stroke:none"
               d="m 3,-2.625 c -0.171875,0.046875 -0.296875,0.1875 -0.296875,0.328125 0,0.171875 0.140625,0.234375 0.234375,0.234375 0.078125,0 0.34375,-0.046875 0.34375,-0.40625 0,-0.453125 -0.5,-0.609375 -0.9375,-0.609375 -1.078125,0 -1.28125,0.8125 -1.28125,1.015625 0,0.265625 0.15625,0.4375 0.25,0.515625 0.171875,0.140625 0.296875,0.171875 0.78125,0.25 0.15625,0.03125 0.59375,0.109375 0.59375,0.453125 0,0.125 -0.078125,0.390625 -0.359375,0.5625 C 2.046875,-0.125 1.703125,-0.125 1.625,-0.125 1.34375,-0.125 0.953125,-0.1875 0.78125,-0.421875 1.015625,-0.453125 1.171875,-0.625 1.171875,-0.8125 c 0,-0.171875 -0.125,-0.265625 -0.265625,-0.265625 -0.203125,0 -0.40625,0.171875 -0.40625,0.46875 0,0.421875 0.4375,0.671875 1.109375,0.671875 1.296875,0 1.53125,-0.875 1.53125,-1.140625 0,-0.640625 -0.703125,-0.765625 -0.96875,-0.8125 -0.0625,-0.015625 -0.234375,-0.046875 -0.28125,-0.0625 -0.25,-0.046875 -0.375,-0.1875 -0.375,-0.34375 0,-0.15625 0.125,-0.34375 0.28125,-0.453125 0.1875,-0.109375 0.421875,-0.125 0.546875,-0.125 0.140625,0 0.5,0.015625 0.65625,0.25 z m 0,0"
               id="id-d9aeb47b-fd6a-44ea-8c33-31688f7e4540" />
          </g>
        </g>
        <g
           style="fill:#000000;fill-opacity:1"
           id="id-5c34a504-2afa-49b7-9a33-f592a968d0b5">
          <g
             id="g3595"
             transform="translate(344.755,156.085)">
            <path
               style="stroke:none"
               d="M 1.578125,-7.484375 H 0.21875 v 0.40625 H 1.1875 V 2.09375 H 0.21875 V 2.5 h 1.359375 z m 0,0"
               id="id-eeab5dae-384d-4c5c-89e9-5652da329b99" />
          </g>
        </g>
        <g
           style="fill:#000000;fill-opacity:1"
           id="id-fe5bdfaa-baa0-42fd-a332-7e09099f0f86">
          <g
             id="g3599"
             transform="translate(347.976,136.159)">
            <path
               style="stroke:none"
               d="M 2.21875,22.96875 H 0.140625 v 0.546875 h 2.625 V -0.40625 h -2.625 v 0.5625 H 2.21875 Z m 0,0"
               id="id-f07ac8e8-3aee-4408-84dc-72903cd50b92" />
          </g>
        </g>
      </g>
    </g>
    <g
       id="g10943"
       ns56:jacobian_sqrt="1.05833"
       ns56:inkscapeversion="1.0"
       ns56:stroke-to-path="0"
       ns56:alignment="middle center"
       ns56:scale="3.0"
       ns56:preamble="C:\Users\USER\AppData\Roaming\inkscape\extensions\textext\default_packages.tex"
       ns56:text="\\begin{equation*}\n\\begin{Bmatrix}\nU_f \n\\end{Bmatrix}=\\begin{Bmatrix}\nU_0 \\\\ U_1 \n\\end{Bmatrix}\n\\end{equation*}"
       ns56:pdfconverter="inkscape"
       ns56:texconverter="pdflatex"
       ns56:version="1.5.0"
       transform="matrix(1.05833,0,0,1.05833,14.2278,325.163)">
      <defs
         id="id-65a517f0-52e4-437b-8e53-900a4de39d1e">
        <g
           id="id-84cb71f7-04c3-416e-bd6e-d4b7c4b2ad13">
          <symbol
             overflow="visible"
             id="id-30107b24-3e65-4c9d-8d20-3c3a853a8ada">
            <path
               style="stroke:none"
               d=""
               id="id-0b30407d-b907-4c79-b0bd-8069e9b265c7" />
          </symbol>
          <symbol
             overflow="visible"
             id="id-0bb5db06-12e3-4482-a671-7224b4eb774e">
            <path
               style="stroke:none"
               d="m 2.5625,3.984375 c 0,0.6875 -0.34375,1.0625 -1.359375,1.46875 C 1.15625,5.46875 1.125,5.515625 1.125,5.578125 1.125,5.65625 1.140625,5.6875 1.21875,5.71875 2.5625,6.234375 2.5625,6.765625 2.5625,7.328125 v 2.75 c 0.015625,0.265625 0.15625,0.640625 0.59375,0.9375 0.5,0.328125 1.296875,0.53125 1.390625,0.53125 0.09375,0 0.125,-0.03125 0.125,-0.125 C 4.671875,11.328125 4.65625,11.328125 4.5,11.28125 4.21875,11.171875 3.4375,10.859375 3.28125,10.25 3.25,10.125 3.25,10.109375 3.25,9.734375 v -2.4375 c 0,-0.515625 0,-1.25 -1.625,-1.71875 C 3.25,5.078125 3.25,4.40625 3.25,3.84375 v -2.4375 c 0,-0.546875 0,-1.0625 1.359375,-1.5625 0.0625,-0.015625 0.0625,-0.09375 0.0625,-0.109375 0,-0.09375 -0.03125,-0.140625 -0.125,-0.140625 -0.078125,0 -1.46875,0.328125 -1.828125,0.984375 C 2.5625,0.875 2.5625,0.96875 2.5625,1.390625 Z m 0,0"
               id="id-d254954c-2ce2-4b78-a4e7-ff9d74cc79ca" />
          </symbol>
          <symbol
             overflow="visible"
             id="id-fc74d937-0d36-4039-9b5b-285976774d32">
            <path
               style="stroke:none"
               d="m 3.25,7.171875 c 0,-0.328125 0,-0.9375 1.28125,-1.453125 0.125,-0.046875 0.140625,-0.046875 0.140625,-0.140625 0,-0.03125 0,-0.09375 -0.0625,-0.109375 C 3.25,4.9375 3.25,4.390625 3.25,3.828125 v -2.75 C 3.234375,0.53125 2.796875,0.234375 2.625,0.125 2.203125,-0.171875 1.359375,-0.40625 1.25,-0.40625 c -0.09375,0 -0.125,0.0625 -0.125,0.140625 0,0.09375 0.046875,0.109375 0.125,0.125 1.3125,0.5 1.3125,1 1.3125,1.5625 v 2.4375 c 0,0.546875 0,1.21875 1.609375,1.71875 C 2.5625,6.109375 2.5625,6.6875 2.5625,7.3125 V 9.75 c 0,0.515625 0,1.046875 -1.28125,1.53125 -0.109375,0.04687 -0.15625,0.04687 -0.15625,0.140625 0,0.07813 0.03125,0.125 0.125,0.125 0.015625,0 1.328125,-0.25 1.796875,-0.90625 C 3.25,10.359375 3.25,10.140625 3.25,9.765625 Z m 0,0"
               id="id-8157f216-13b4-4df4-8345-5fee96e95ee8" />
          </symbol>
          <symbol
             overflow="visible"
             id="id-c818a39c-0d06-47e0-8ec1-2090689c9272">
            <path
               style="stroke:none"
               d="m 4.140625,14.84375 c 0,-0.46875 0,-1.203125 -0.625,-2.015625 C 3.125,12.328125 2.5625,11.875 1.875,11.5625 3.8125,10.625 4.140625,9.1875 4.140625,8.625 v -5.75 c 0,-0.609375 0,-1.890625 1.9375,-2.84375 0.078125,-0.046875 0.078125,-0.0625 0.078125,-0.203125 0,-0.21875 0,-0.234375 -0.21875,-0.234375 -0.140625,0 -0.15625,0 -0.421875,0.125 C 4.53125,0.203125 3.5625,1 3.34375,2.21875 3.3125,2.40625 3.3125,2.5 3.3125,3.171875 V 7.78125 c 0,0.296875 0,0.828125 0,0.9375 -0.09375,1.046875 -0.703125,1.953125 -1.84375,2.578125 -0.15625,0.09375 -0.15625,0.09375 -0.15625,0.25 0,0.171875 0,0.1875 0.140625,0.265625 0.671875,0.375 1.625,1.09375 1.828125,2.328125 C 3.3125,14.375 3.3125,14.390625 3.3125,14.5 v 5.921875 c 0,1.453125 1,2.390625 2.234375,2.984375 0.21875,0.109375 0.25,0.109375 0.390625,0.109375 0.21875,0 0.21875,0 0.21875,-0.21875 0,-0.15625 0,-0.171875 -0.078125,-0.21875 C 5.65625,22.875 4.375,22.234375 4.171875,20.796875 c -0.03125,-0.140625 -0.03125,-0.25 -0.03125,-0.84375 z m 0,0"
               id="id-709104f9-a6d7-4419-aee3-2fd8c90f29e1" />
          </symbol>
          <symbol
             overflow="visible"
             id="id-8b0ebb04-b66b-4dc9-b2cb-c9249aad896a">
            <path
               style="stroke:none"
               d="m 4.140625,14.6875 c 0,-1.1875 0.609375,-2.203125 1.9375,-2.921875 0.078125,-0.03125 0.078125,-0.04687 0.078125,-0.203125 0,-0.171875 0,-0.171875 -0.109375,-0.234375 C 4.25,10.375 4.140625,8.90625 4.140625,8.609375 V 2.6875 C 4.140625,1.25 3.15625,0.296875 1.90625,-0.296875 1.6875,-0.40625 1.671875,-0.40625 1.53125,-0.40625 c -0.21875,0 -0.21875,0.015625 -0.21875,0.234375 0,0.140625 0,0.15625 0.078125,0.21875 C 1.828125,0.25 3.09375,0.890625 3.296875,2.328125 3.3125,2.46875 3.3125,2.578125 3.3125,3.171875 V 8.28125 c 0,0.46875 0,1.203125 0.640625,2 0.390625,0.5 0.953125,0.96875 1.640625,1.265625 -1.9375,0.9375 -2.28125,2.375 -2.28125,2.953125 v 5.734375 c 0,0.515625 0,1.09375 -0.578125,1.828125 -0.4375,0.5625 -0.9375,0.8125 -1.359375,1.03125 -0.0625,0.03125 -0.0625,0.07813 -0.0625,0.203125 0,0.203125 0,0.21875 0.21875,0.21875 0.140625,0 0.15625,0 0.40625,-0.125 1,-0.484375 1.96875,-1.265625 2.171875,-2.484375 0.03125,-0.203125 0.03125,-0.296875 0.03125,-0.953125 z m 0,0"
               id="id-58ab9933-a085-4256-9ed9-90f8f5055145" />
          </symbol>
          <symbol
             overflow="visible"
             id="id-3e9ac409-77fd-4647-a55a-f7d8eac36d7c">
            <path
               style="stroke:none"
               d=""
               id="id-8198ec84-32d2-4cd8-9441-7b47bfa3f323" />
          </symbol>
          <symbol
             overflow="visible"
             id="id-9b3d9834-9b18-4eaa-b48b-6289270f813d">
            <path
               style="stroke:none"
               d="M 6.328125,-5.765625 C 6.4375,-6.171875 6.609375,-6.46875 7.40625,-6.5 c 0.046875,0 0.171875,-0.015625 0.171875,-0.203125 0,0 0,-0.109375 -0.125,-0.109375 -0.328125,0 -0.6875,0.03125 -1.015625,0.03125 -0.34375,0 -0.71875,-0.03125 -1.046875,-0.03125 -0.0625,0 -0.171875,0 -0.171875,0.203125 C 5.21875,-6.5 5.3125,-6.5 5.390625,-6.5 c 0.578125,0.015625 0.6875,0.21875 0.6875,0.4375 0,0.03125 -0.03125,0.1875 -0.03125,0.203125 l -0.90625,3.5625 C 4.8125,-0.953125 3.65625,-0.09375 2.65625,-0.09375 c -0.671875,0 -1.203125,-0.4375 -1.203125,-1.296875 0,-0.015625 0,-0.328125 0.109375,-0.765625 L 2.515625,-6.046875 C 2.609375,-6.40625 2.625,-6.5 3.359375,-6.5 c 0.265625,0 0.34375,0 0.34375,-0.203125 0,-0.109375 -0.109375,-0.109375 -0.140625,-0.109375 -0.28125,0 -1,0.03125 -1.28125,0.03125 -0.28125,0 -1,-0.03125 -1.28125,-0.03125 -0.078125,0 -0.1875,0 -0.1875,0.203125 C 0.8125,-6.5 0.890625,-6.5 1.09375,-6.5 c 0.015625,0 0.203125,0 0.375,0.015625 0.171875,0.03125 0.265625,0.03125 0.265625,0.171875 0,0.046875 -0.109375,0.46875 -0.171875,0.703125 l -0.21875,0.875 C 1.25,-4.34375 0.78125,-2.46875 0.734375,-2.265625 0.671875,-2 0.671875,-1.84375 0.671875,-1.6875 c 0,1.203125 0.90625,1.90625 1.953125,1.90625 1.25,0 2.484375,-1.125 2.8125,-2.4375 z m 0,0"
               id="id-cacb4387-616e-40eb-99e1-4836c6b9bab4" />
          </symbol>
          <symbol
             overflow="visible"
             id="id-ccfeba7b-b849-493c-a52f-f0acc046eb4f">
            <path
               style="stroke:none"
               d=""
               id="id-96de2588-de2a-407d-b84c-6fd820eb0c88" />
          </symbol>
          <symbol
             overflow="visible"
             id="id-4b5b2ac4-b292-4dfa-8f18-9fa08dda741b">
            <path
               style="stroke:none"
               d="M 2.84375,-2.75 H 3.515625 C 3.65625,-2.75 3.75,-2.75 3.75,-2.90625 3.75,-3 3.65625,-3 3.53125,-3 H 2.890625 c 0.15625,-0.890625 0.203125,-1.203125 0.265625,-1.40625 0.03125,-0.15625 0.1875,-0.296875 0.359375,-0.296875 0,0 0.1875,0 0.328125,0.078125 -0.296875,0.09375 -0.3125,0.34375 -0.3125,0.375 0,0.15625 0.125,0.265625 0.28125,0.265625 0.1875,0 0.390625,-0.15625 0.390625,-0.421875 0,-0.328125 -0.328125,-0.5 -0.6875,-0.5 -0.3125,0 -0.65625,0.171875 -0.84375,0.515625 C 2.53125,-4.125 2.484375,-3.8125 2.328125,-3 H 1.78125 c -0.140625,0 -0.234375,0 -0.234375,0.15625 0,0.09375 0.09375,0.09375 0.21875,0.09375 H 2.28125 c 0,0.046875 -0.4375,2.546875 -0.609375,3.296875 -0.03125,0.15625 -0.15625,0.671875 -0.484375,0.671875 -0.015625,0 -0.171875,0 -0.3125,-0.078125 0.28125,-0.09375 0.3125,-0.34375 0.3125,-0.375 C 1.1875,0.609375 1.0625,0.5 0.90625,0.5 c -0.1875,0 -0.390625,0.15625 -0.390625,0.421875 0,0.3125 0.328125,0.5 0.671875,0.5 0.4375,0 0.75,-0.453125 0.828125,-0.609375 0.25,-0.46875 0.421875,-1.328125 0.4375,-1.40625 z m 0,0"
               id="id-25b6020d-aa81-4b07-bfda-e4cbbb4fbdce" />
          </symbol>
          <symbol
             overflow="visible"
             id="id-8fb7780e-3b1f-4a2a-bcce-bc963fb26072">
            <path
               style="stroke:none"
               d=""
               id="id-36d1d52f-a5c9-4f6e-bc2c-a1910f726d23" />
          </symbol>
          <symbol
             overflow="visible"
             id="id-058704c1-f2fb-420c-aaa5-b54f8cbb1c5b">
            <path
               style="stroke:none"
               d="m 6.84375,-3.265625 c 0.15625,0 0.34375,0 0.34375,-0.1875 C 7.1875,-3.65625 7,-3.65625 6.859375,-3.65625 h -5.96875 c -0.140625,0 -0.328125,0 -0.328125,0.203125 0,0.1875 0.1875,0.1875 0.328125,0.1875 z m 0.015625,1.9375 c 0.140625,0 0.328125,0 0.328125,-0.203125 0,-0.1875 -0.1875,-0.1875 -0.34375,-0.1875 H 0.890625 c -0.140625,0 -0.328125,0 -0.328125,0.1875 0,0.203125 0.1875,0.203125 0.328125,0.203125 z m 0,0"
               id="id-f8648429-254d-4000-89ce-8e090fcabce3" />
          </symbol>
          <symbol
             overflow="visible"
             id="id-6799ef4f-0d7d-4976-b453-2e30efbba7a1">
            <path
               style="stroke:none"
               d=""
               id="id-8d6b4335-a175-4d84-b50f-aa1d583ce55a" />
          </symbol>
          <symbol
             overflow="visible"
             id="id-be349f0c-f66b-4a2f-a501-553ce61e73e8">
            <path
               style="stroke:none"
               d="M 3.59375,-2.21875 C 3.59375,-2.984375 3.5,-3.546875 3.1875,-4.03125 2.96875,-4.34375 2.53125,-4.625 1.984375,-4.625 c -1.625,0 -1.625,1.90625 -1.625,2.40625 0,0.5 0,2.359375 1.625,2.359375 1.609375,0 1.609375,-1.859375 1.609375,-2.359375 z M 1.984375,-0.0625 c -0.328125,0 -0.75,-0.1875 -0.890625,-0.75 C 1,-1.21875 1,-1.796875 1,-2.3125 1,-2.828125 1,-3.359375 1.09375,-3.734375 1.25,-4.28125 1.6875,-4.4375 1.984375,-4.4375 c 0.375,0 0.734375,0.234375 0.859375,0.640625 0.109375,0.375 0.125,0.875 0.125,1.484375 0,0.515625 0,1.03125 -0.09375,1.46875 -0.140625,0.640625 -0.609375,0.78125 -0.890625,0.78125 z m 0,0"
               id="id-0973b2ce-561b-46a7-8a45-8f61f33c79d6" />
          </symbol>
          <symbol
             overflow="visible"
             id="id-d50cc488-a7cd-432d-ab2f-3942a141c4c6">
            <path
               style="stroke:none"
               d="m 2.328125,-4.4375 c 0,-0.1875 0,-0.1875 -0.203125,-0.1875 -0.453125,0.4375 -1.078125,0.4375 -1.359375,0.4375 v 0.25 c 0.15625,0 0.625,0 1,-0.1875 v 3.546875 c 0,0.234375 0,0.328125 -0.6875,0.328125 H 0.8125 V 0 c 0.125,0 0.984375,-0.03125 1.234375,-0.03125 0.21875,0 1.09375,0.03125 1.25,0.03125 V -0.25 H 3.03125 c -0.703125,0 -0.703125,-0.09375 -0.703125,-0.328125 z m 0,0"
               id="id-dfa77d8c-0a45-457a-9090-d9822353d145" />
          </symbol>
        </g>
      </defs>
      <g
         id="id-cb0fbe0f-841a-4045-bf68-3b6a6030f2c5"
         transform="translate(-275.204,-135.753)">
        <g
           style="fill:#000000;fill-opacity:1"
           id="id-65ce5341-ac37-486c-9753-d144fdd6ca8c">
          <g
             id="g11628"
             transform="translate(274.079,142.137)">
            <path
               style="stroke:none"
               d="m 2.5625,3.984375 c 0,0.6875 -0.34375,1.0625 -1.359375,1.46875 C 1.15625,5.46875 1.125,5.515625 1.125,5.578125 1.125,5.65625 1.140625,5.6875 1.21875,5.71875 2.5625,6.234375 2.5625,6.765625 2.5625,7.328125 v 2.75 c 0.015625,0.265625 0.15625,0.640625 0.59375,0.9375 0.5,0.328125 1.296875,0.53125 1.390625,0.53125 0.09375,0 0.125,-0.03125 0.125,-0.125 C 4.671875,11.328125 4.65625,11.328125 4.5,11.28125 4.21875,11.171875 3.4375,10.859375 3.28125,10.25 3.25,10.125 3.25,10.109375 3.25,9.734375 v -2.4375 c 0,-0.515625 0,-1.25 -1.625,-1.71875 C 3.25,5.078125 3.25,4.40625 3.25,3.84375 v -2.4375 c 0,-0.546875 0,-1.0625 1.359375,-1.5625 0.0625,-0.015625 0.0625,-0.09375 0.0625,-0.109375 0,-0.09375 -0.03125,-0.140625 -0.125,-0.140625 -0.078125,0 -1.46875,0.328125 -1.828125,0.984375 C 2.5625,0.875 2.5625,0.96875 2.5625,1.390625 Z m 0,0"
               id="id-075d9044-89e8-4aa4-97d0-07539cdc4684" />
          </g>
        </g>
        <g
           style="fill:#000000;fill-opacity:1"
           id="id-372132d5-b709-43e0-8e31-d78a55cebb8b">
          <g
             id="g11632"
             transform="translate(279.891,150.107)">
            <path
               style="stroke:none"
               d="M 6.328125,-5.765625 C 6.4375,-6.171875 6.609375,-6.46875 7.40625,-6.5 c 0.046875,0 0.171875,-0.015625 0.171875,-0.203125 0,0 0,-0.109375 -0.125,-0.109375 -0.328125,0 -0.6875,0.03125 -1.015625,0.03125 -0.34375,0 -0.71875,-0.03125 -1.046875,-0.03125 -0.0625,0 -0.171875,0 -0.171875,0.203125 C 5.21875,-6.5 5.3125,-6.5 5.390625,-6.5 c 0.578125,0.015625 0.6875,0.21875 0.6875,0.4375 0,0.03125 -0.03125,0.1875 -0.03125,0.203125 l -0.90625,3.5625 C 4.8125,-0.953125 3.65625,-0.09375 2.65625,-0.09375 c -0.671875,0 -1.203125,-0.4375 -1.203125,-1.296875 0,-0.015625 0,-0.328125 0.109375,-0.765625 L 2.515625,-6.046875 C 2.609375,-6.40625 2.625,-6.5 3.359375,-6.5 c 0.265625,0 0.34375,0 0.34375,-0.203125 0,-0.109375 -0.109375,-0.109375 -0.140625,-0.109375 -0.28125,0 -1,0.03125 -1.28125,0.03125 -0.28125,0 -1,-0.03125 -1.28125,-0.03125 -0.078125,0 -0.1875,0 -0.1875,0.203125 C 0.8125,-6.5 0.890625,-6.5 1.09375,-6.5 c 0.015625,0 0.203125,0 0.375,0.015625 0.171875,0.03125 0.265625,0.03125 0.265625,0.171875 0,0.046875 -0.109375,0.46875 -0.171875,0.703125 l -0.21875,0.875 C 1.25,-4.34375 0.78125,-2.46875 0.734375,-2.265625 0.671875,-2 0.671875,-1.84375 0.671875,-1.6875 c 0,1.203125 0.90625,1.90625 1.953125,1.90625 1.25,0 2.484375,-1.125 2.8125,-2.4375 z m 0,0"
               id="id-2379ffa9-73e3-46e3-af3c-b5a7ded12ea1" />
          </g>
        </g>
        <g
           style="fill:#000000;fill-opacity:1"
           id="id-16704a92-9f6b-48b3-804b-34a7d823d882">
          <g
             id="g11636"
             transform="translate(286.693,151.602)">
            <path
               style="stroke:none"
               d="M 2.84375,-2.75 H 3.515625 C 3.65625,-2.75 3.75,-2.75 3.75,-2.90625 3.75,-3 3.65625,-3 3.53125,-3 H 2.890625 c 0.15625,-0.890625 0.203125,-1.203125 0.265625,-1.40625 0.03125,-0.15625 0.1875,-0.296875 0.359375,-0.296875 0,0 0.1875,0 0.328125,0.078125 -0.296875,0.09375 -0.3125,0.34375 -0.3125,0.375 0,0.15625 0.125,0.265625 0.28125,0.265625 0.1875,0 0.390625,-0.15625 0.390625,-0.421875 0,-0.328125 -0.328125,-0.5 -0.6875,-0.5 -0.3125,0 -0.65625,0.171875 -0.84375,0.515625 C 2.53125,-4.125 2.484375,-3.8125 2.328125,-3 H 1.78125 c -0.140625,0 -0.234375,0 -0.234375,0.15625 0,0.09375 0.09375,0.09375 0.21875,0.09375 H 2.28125 c 0,0.046875 -0.4375,2.546875 -0.609375,3.296875 -0.03125,0.15625 -0.15625,0.671875 -0.484375,0.671875 -0.015625,0 -0.171875,0 -0.3125,-0.078125 0.28125,-0.09375 0.3125,-0.34375 0.3125,-0.375 C 1.1875,0.609375 1.0625,0.5 0.90625,0.5 c -0.1875,0 -0.390625,0.15625 -0.390625,0.421875 0,0.3125 0.328125,0.5 0.671875,0.5 0.4375,0 0.75,-0.453125 0.828125,-0.609375 0.25,-0.46875 0.421875,-1.328125 0.4375,-1.40625 z m 0,0"
               id="id-dbad123a-ffd6-4bb5-b262-80dbb306ba7b" />
          </g>
        </g>
        <g
           style="fill:#000000;fill-opacity:1"
           id="id-3a26eafe-368c-4373-8572-cdbb9e2b92f8">
          <g
             id="g11640"
             transform="translate(291.858,142.137)">
            <path
               style="stroke:none"
               d="m 3.25,7.171875 c 0,-0.328125 0,-0.9375 1.28125,-1.453125 0.125,-0.046875 0.140625,-0.046875 0.140625,-0.140625 0,-0.03125 0,-0.09375 -0.0625,-0.109375 C 3.25,4.9375 3.25,4.390625 3.25,3.828125 v -2.75 C 3.234375,0.53125 2.796875,0.234375 2.625,0.125 2.203125,-0.171875 1.359375,-0.40625 1.25,-0.40625 c -0.09375,0 -0.125,0.0625 -0.125,0.140625 0,0.09375 0.046875,0.109375 0.125,0.125 1.3125,0.5 1.3125,1 1.3125,1.5625 v 2.4375 c 0,0.546875 0,1.21875 1.609375,1.71875 C 2.5625,6.109375 2.5625,6.6875 2.5625,7.3125 V 9.75 c 0,0.515625 0,1.046875 -1.28125,1.53125 -0.109375,0.04687 -0.15625,0.04687 -0.15625,0.140625 0,0.07813 0.03125,0.125 0.125,0.125 0.015625,0 1.328125,-0.25 1.796875,-0.90625 C 3.25,10.359375 3.25,10.140625 3.25,9.765625 Z m 0,0"
               id="id-e50aa9a5-2fdc-4a52-862f-78e4f406372c" />
          </g>
        </g>
        <g
           style="fill:#000000;fill-opacity:1"
           id="id-43f99ddd-00de-412e-9620-f8be6f6c8883">
          <g
             id="g11644"
             transform="translate(300.437,150.207)">
            <path
               style="stroke:none"
               d="m 6.84375,-3.265625 c 0.15625,0 0.34375,0 0.34375,-0.1875 C 7.1875,-3.65625 7,-3.65625 6.859375,-3.65625 h -5.96875 c -0.140625,0 -0.328125,0 -0.328125,0.203125 0,0.1875 0.1875,0.1875 0.328125,0.1875 z m 0.015625,1.9375 c 0.140625,0 0.328125,0 0.328125,-0.203125 0,-0.1875 -0.1875,-0.1875 -0.34375,-0.1875 H 0.890625 c -0.140625,0 -0.328125,0 -0.328125,0.1875 0,0.203125 0.1875,0.203125 0.328125,0.203125 z m 0,0"
               id="id-01c758c2-7ad2-44c2-bc24-ad30aef352d6" />
          </g>
        </g>
        <g
           style="fill:#000000;fill-opacity:1"
           id="id-cee33c6b-731f-443c-86eb-da66cc2db09f">
          <g
             id="g11648"
             transform="translate(310.953,136.159)">
            <path
               style="stroke:none"
               d="m 4.140625,14.84375 c 0,-0.46875 0,-1.203125 -0.625,-2.015625 C 3.125,12.328125 2.5625,11.875 1.875,11.5625 3.8125,10.625 4.140625,9.1875 4.140625,8.625 v -5.75 c 0,-0.609375 0,-1.890625 1.9375,-2.84375 0.078125,-0.046875 0.078125,-0.0625 0.078125,-0.203125 0,-0.21875 0,-0.234375 -0.21875,-0.234375 -0.140625,0 -0.15625,0 -0.421875,0.125 C 4.53125,0.203125 3.5625,1 3.34375,2.21875 3.3125,2.40625 3.3125,2.5 3.3125,3.171875 V 7.78125 c 0,0.296875 0,0.828125 0,0.9375 -0.09375,1.046875 -0.703125,1.953125 -1.84375,2.578125 -0.15625,0.09375 -0.15625,0.09375 -0.15625,0.25 0,0.171875 0,0.1875 0.140625,0.265625 0.671875,0.375 1.625,1.09375 1.828125,2.328125 C 3.3125,14.375 3.3125,14.390625 3.3125,14.5 v 5.921875 c 0,1.453125 1,2.390625 2.234375,2.984375 0.21875,0.109375 0.25,0.109375 0.390625,0.109375 0.21875,0 0.21875,0 0.21875,-0.21875 0,-0.15625 0,-0.171875 -0.078125,-0.21875 C 5.65625,22.875 4.375,22.234375 4.171875,20.796875 c -0.03125,-0.140625 -0.03125,-0.25 -0.03125,-0.84375 z m 0,0"
               id="id-70a047f5-f276-4b30-8daf-d7f975df7087" />
          </g>
        </g>
        <g
           style="fill:#000000;fill-opacity:1"
           id="id-6b02b071-6516-4426-b72c-4ddeaed378d5">
          <g
             id="g11652"
             transform="translate(318.425,144.13)">
            <path
               style="stroke:none"
               d="M 6.328125,-5.765625 C 6.4375,-6.171875 6.609375,-6.46875 7.40625,-6.5 c 0.046875,0 0.171875,-0.015625 0.171875,-0.203125 0,0 0,-0.109375 -0.125,-0.109375 -0.328125,0 -0.6875,0.03125 -1.015625,0.03125 -0.34375,0 -0.71875,-0.03125 -1.046875,-0.03125 -0.0625,0 -0.171875,0 -0.171875,0.203125 C 5.21875,-6.5 5.3125,-6.5 5.390625,-6.5 c 0.578125,0.015625 0.6875,0.21875 0.6875,0.4375 0,0.03125 -0.03125,0.1875 -0.03125,0.203125 l -0.90625,3.5625 C 4.8125,-0.953125 3.65625,-0.09375 2.65625,-0.09375 c -0.671875,0 -1.203125,-0.4375 -1.203125,-1.296875 0,-0.015625 0,-0.328125 0.109375,-0.765625 L 2.515625,-6.046875 C 2.609375,-6.40625 2.625,-6.5 3.359375,-6.5 c 0.265625,0 0.34375,0 0.34375,-0.203125 0,-0.109375 -0.109375,-0.109375 -0.140625,-0.109375 -0.28125,0 -1,0.03125 -1.28125,0.03125 -0.28125,0 -1,-0.03125 -1.28125,-0.03125 -0.078125,0 -0.1875,0 -0.1875,0.203125 C 0.8125,-6.5 0.890625,-6.5 1.09375,-6.5 c 0.015625,0 0.203125,0 0.375,0.015625 0.171875,0.03125 0.265625,0.03125 0.265625,0.171875 0,0.046875 -0.109375,0.46875 -0.171875,0.703125 l -0.21875,0.875 C 1.25,-4.34375 0.78125,-2.46875 0.734375,-2.265625 0.671875,-2 0.671875,-1.84375 0.671875,-1.6875 c 0,1.203125 0.90625,1.90625 1.953125,1.90625 1.25,0 2.484375,-1.125 2.8125,-2.4375 z m 0,0"
               id="id-687dcd91-f313-494c-8451-a2858ecc75bc" />
          </g>
        </g>
        <g
           style="fill:#000000;fill-opacity:1"
           id="id-a2600cf7-1258-4af2-afa1-9503e9085c3e">
          <g
             id="g11656"
             transform="translate(325.227,145.624)">
            <path
               style="stroke:none"
               d="M 3.59375,-2.21875 C 3.59375,-2.984375 3.5,-3.546875 3.1875,-4.03125 2.96875,-4.34375 2.53125,-4.625 1.984375,-4.625 c -1.625,0 -1.625,1.90625 -1.625,2.40625 0,0.5 0,2.359375 1.625,2.359375 1.609375,0 1.609375,-1.859375 1.609375,-2.359375 z M 1.984375,-0.0625 c -0.328125,0 -0.75,-0.1875 -0.890625,-0.75 C 1,-1.21875 1,-1.796875 1,-2.3125 1,-2.828125 1,-3.359375 1.09375,-3.734375 1.25,-4.28125 1.6875,-4.4375 1.984375,-4.4375 c 0.375,0 0.734375,0.234375 0.859375,0.640625 0.109375,0.375 0.125,0.875 0.125,1.484375 0,0.515625 0,1.03125 -0.09375,1.46875 -0.140625,0.640625 -0.609375,0.78125 -0.890625,0.78125 z m 0,0"
               id="id-79cfc1a8-1c93-41ca-9488-f471643424ff" />
          </g>
        </g>
        <g
           style="fill:#000000;fill-opacity:1"
           id="id-d634a52f-3c29-41f6-9e9b-f9c5f1d8eda9">
          <g
             id="g11660"
             transform="translate(318.425,156.085)">
            <path
               style="stroke:none"
               d="M 6.328125,-5.765625 C 6.4375,-6.171875 6.609375,-6.46875 7.40625,-6.5 c 0.046875,0 0.171875,-0.015625 0.171875,-0.203125 0,0 0,-0.109375 -0.125,-0.109375 -0.328125,0 -0.6875,0.03125 -1.015625,0.03125 -0.34375,0 -0.71875,-0.03125 -1.046875,-0.03125 -0.0625,0 -0.171875,0 -0.171875,0.203125 C 5.21875,-6.5 5.3125,-6.5 5.390625,-6.5 c 0.578125,0.015625 0.6875,0.21875 0.6875,0.4375 0,0.03125 -0.03125,0.1875 -0.03125,0.203125 l -0.90625,3.5625 C 4.8125,-0.953125 3.65625,-0.09375 2.65625,-0.09375 c -0.671875,0 -1.203125,-0.4375 -1.203125,-1.296875 0,-0.015625 0,-0.328125 0.109375,-0.765625 L 2.515625,-6.046875 C 2.609375,-6.40625 2.625,-6.5 3.359375,-6.5 c 0.265625,0 0.34375,0 0.34375,-0.203125 0,-0.109375 -0.109375,-0.109375 -0.140625,-0.109375 -0.28125,0 -1,0.03125 -1.28125,0.03125 -0.28125,0 -1,-0.03125 -1.28125,-0.03125 -0.078125,0 -0.1875,0 -0.1875,0.203125 C 0.8125,-6.5 0.890625,-6.5 1.09375,-6.5 c 0.015625,0 0.203125,0 0.375,0.015625 0.171875,0.03125 0.265625,0.03125 0.265625,0.171875 0,0.046875 -0.109375,0.46875 -0.171875,0.703125 l -0.21875,0.875 C 1.25,-4.34375 0.78125,-2.46875 0.734375,-2.265625 0.671875,-2 0.671875,-1.84375 0.671875,-1.6875 c 0,1.203125 0.90625,1.90625 1.953125,1.90625 1.25,0 2.484375,-1.125 2.8125,-2.4375 z m 0,0"
               id="id-455f3322-07dc-4ec4-b4e2-d4be69ef079d" />
          </g>
        </g>
        <g
           style="fill:#000000;fill-opacity:1"
           id="id-f02a3f5d-6f9d-479e-8ff8-812d8f1c885c">
          <g
             id="g11664"
             transform="translate(325.227,157.579)">
            <path
               style="stroke:none"
               d="m 2.328125,-4.4375 c 0,-0.1875 0,-0.1875 -0.203125,-0.1875 -0.453125,0.4375 -1.078125,0.4375 -1.359375,0.4375 v 0.25 c 0.15625,0 0.625,0 1,-0.1875 v 3.546875 c 0,0.234375 0,0.328125 -0.6875,0.328125 H 0.8125 V 0 c 0.125,0 0.984375,-0.03125 1.234375,-0.03125 0.21875,0 1.09375,0.03125 1.25,0.03125 V -0.25 H 3.03125 c -0.703125,0 -0.703125,-0.09375 -0.703125,-0.328125 z m 0,0"
               id="id-642f4850-e71c-4ab9-aa5c-78eea7802164" />
          </g>
        </g>
        <g
           style="fill:#000000;fill-opacity:1"
           id="id-b4d3d450-c008-4218-bd16-43adb97c86b4">
          <g
             id="g11668"
             transform="translate(329.697,136.159)">
            <path
               style="stroke:none"
               d="m 4.140625,14.6875 c 0,-1.1875 0.609375,-2.203125 1.9375,-2.921875 0.078125,-0.03125 0.078125,-0.04687 0.078125,-0.203125 0,-0.171875 0,-0.171875 -0.109375,-0.234375 C 4.25,10.375 4.140625,8.90625 4.140625,8.609375 V 2.6875 C 4.140625,1.25 3.15625,0.296875 1.90625,-0.296875 1.6875,-0.40625 1.671875,-0.40625 1.53125,-0.40625 c -0.21875,0 -0.21875,0.015625 -0.21875,0.234375 0,0.140625 0,0.15625 0.078125,0.21875 C 1.828125,0.25 3.09375,0.890625 3.296875,2.328125 3.3125,2.46875 3.3125,2.578125 3.3125,3.171875 V 8.28125 c 0,0.46875 0,1.203125 0.640625,2 0.390625,0.5 0.953125,0.96875 1.640625,1.265625 -1.9375,0.9375 -2.28125,2.375 -2.28125,2.953125 v 5.734375 c 0,0.515625 0,1.09375 -0.578125,1.828125 -0.4375,0.5625 -0.9375,0.8125 -1.359375,1.03125 -0.0625,0.03125 -0.0625,0.07813 -0.0625,0.203125 0,0.203125 0,0.21875 0.21875,0.21875 0.140625,0 0.15625,0 0.40625,-0.125 1,-0.484375 1.96875,-1.265625 2.171875,-2.484375 0.03125,-0.203125 0.03125,-0.296875 0.03125,-0.953125 z m 0,0"
               id="id-52b903c3-7d87-4ae0-9188-48045d67547b" />
          </g>
        </g>
      </g>
    </g>
    <path
       d="m 254.49638,187.54737 h 60.74554"
       style="fill:none;stroke:#000000;stroke-width:1;stroke-linecap:butt;stroke-linejoin:miter;stroke-miterlimit:4;stroke-dasharray:none;stroke-opacity:1"
       id="path13194" />
    <ellipse
       transform="rotate(-90)"
       ry="2.3504803"
       rx="2.283175"
       cy="251.9908"
       cx="-187.54736"
       id="ellipse13198"
       style="opacity:1;fill:none;stroke:#000000;stroke-width:0.648413;stroke-miterlimit:4;stroke-dasharray:none;stop-color:#000000" />
    <path
       style="fill:none;stroke:#2ad4ff;stroke-width:1;stroke-linecap:butt;stroke-linejoin:miter;stroke-miterlimit:4;stroke-dasharray:none;stroke-opacity:1"
       d="m 319.94288,187.54737 h 17.48786"
       id="path13260"
       sodipodi:nodetypes="cc" />
    <path
       style="fill:none;stroke:#2ad4ff;stroke-width:1;stroke-linecap:butt;stroke-linejoin:miter;stroke-miterlimit:4;stroke-dasharray:none;stroke-opacity:1"
       d="m 330.70589,184.58589 6.72485,2.96148"
       id="path13262"
       sodipodi:nodetypes="cc" />
    <path
       sodipodi:nodetypes="cc"
       id="path13264"
       d="m 330.70589,190.50885 6.72485,-2.96148"
       style="fill:none;stroke:#2ad4ff;stroke-width:1;stroke-linecap:butt;stroke-linejoin:miter;stroke-miterlimit:4;stroke-dasharray:none;stroke-opacity:1" />
    <path
       sodipodi:nodetypes="cc"
       id="path13301"
       d="M 249.64033,187.54737 H 232.15247"
       style="fill:none;stroke:#00ccff;stroke-width:1;stroke-linecap:butt;stroke-linejoin:miter;stroke-miterlimit:4;stroke-dasharray:none;stroke-opacity:1" />
    <path
       sodipodi:nodetypes="cc"
       id="path13303"
       d="m 238.87732,190.50885 -6.72485,-2.96148"
       style="fill:none;stroke:#00ccff;stroke-width:1;stroke-linecap:butt;stroke-linejoin:miter;stroke-miterlimit:4;stroke-dasharray:none;stroke-opacity:1" />
    <path
       style="fill:none;stroke:#00ccff;stroke-width:1;stroke-linecap:butt;stroke-linejoin:miter;stroke-miterlimit:4;stroke-dasharray:none;stroke-opacity:1"
       d="m 238.87732,184.58589 -6.72485,2.96148"
       id="path13305"
       sodipodi:nodetypes="cc" />
    <path
       sodipodi:nodetypes="cc"
       id="path13307"
       d="m 238.87732,190.50885 -6.72485,-2.96148"
       style="fill:none;stroke:#00ccff;stroke-width:1;stroke-linecap:butt;stroke-linejoin:miter;stroke-miterlimit:4;stroke-dasharray:none;stroke-opacity:1" />
    <path
       style="fill:none;stroke:#00ccff;stroke-width:1;stroke-linecap:butt;stroke-linejoin:miter;stroke-miterlimit:4;stroke-dasharray:none;stroke-opacity:1"
       d="m 238.87732,184.58589 -6.72485,2.96148"
       id="path13309"
       sodipodi:nodetypes="cc" />
    <text
       xml:space="preserve"
       style="font-weight:bold;font-size:5.29167px;line-height:1.25;font-family:sans-serif;-inkscape-font-specification:'sans-serif Bold';stroke-width:0.264583"
       x="232.96301"
       y="182.21593"
       id="text13319"><tspan
         sodipodi:role="line"
         id="tspan13317"
         x="232.96301"
         y="182.21593"
         style="stroke-width:0.264583">180kN</tspan></text>
    <text
       id="text13323"
       y="182.21593"
       x="318.24176"
       style="font-weight:bold;font-size:5.29167px;line-height:1.25;font-family:sans-serif;-inkscape-font-specification:'sans-serif Bold';stroke-width:0.264583"
       xml:space="preserve"><tspan
         style="stroke-width:0.264583"
         y="182.21593"
         x="318.24176"
         id="tspan13321"
         sodipodi:role="line">180kN</tspan></text>
    <rect
       transform="rotate(-90)"
       style="opacity:1;fill:none;stroke:#008000;stroke-width:0.768355;stroke-linejoin:round;stroke-miterlimit:4;stroke-dasharray:none;stop-color:#000000"
       id="rect13258-5"
       width="8.2478743"
       height="11.987538"
       x="-195.79523"
       y="278.87537" />
    <ellipse
       style="opacity:1;fill:none;stroke:#000000;stroke-width:0.648413;stroke-miterlimit:4;stroke-dasharray:none;stop-color:#000000"
       id="ellipse1474"
       cx="-187.54736"
       cy="317.59241"
       rx="2.283175"
       ry="2.3504803"
       transform="rotate(-90)" />
    <g
       transform="matrix(0.82797 0 0 0.82797 283.045 188.878)"
       ns56:version="1.5.0"
       ns56:texconverter="pdflatex"
       ns56:pdfconverter="inkscape"
       ns56:text="$4$"
       ns56:preamble="C:\Users\USER\AppData\Roaming\inkscape\extensions\textext\default_packages.tex"
       ns56:scale="2.34699992301875"
       ns56:alignment="middle center"
       ns56:stroke-to-path="0"
       ns56:inkscapeversion="1.0"
       ns56:jacobian_sqrt="0.82797"
       style="fill:#008000;stroke-width:0"
       id="g6628">
      <defs
         id="id-16ff7ca9-3c0b-41a4-9938-b34f0aa0c0d9"
         style="fill:#008000;stroke-width:0">
        <g
           id="id-9bbdbe01-90fd-4204-8283-adc681659430"
           style="fill:#008000;stroke-width:0">
          <symbol
             id="id-9c2dc7a7-ce6e-41a4-ba14-cdc3b0c378a3"
             overflow="visible"
             style="fill:#008000;stroke-width:0">
            <path
               id="id-1fba83d5-0af3-4914-afc7-06ae508b3076"
               d=""
               style="stroke:#008000;fill:#008000;stroke-width:0" />
          </symbol>
          <symbol
             id="id-8a385248-b8e9-4d94-9e03-f0b815a3a1e7"
             overflow="visible"
             style="fill:#008000;stroke-width:0">
            <path
               id="id-0b09e8d0-243c-4012-8d30-5952702fcd27"
               d="m 2.9375,-1.640625 v 0.859375 c 0,0.359375 -0.03125,0.46875 -0.765625,0.46875 H 1.96875 V 0 C 2.375,-0.03125 2.890625,-0.03125 3.3125,-0.03125 c 0.421875,0 0.9375,0 1.359375,0.03125 v -0.3125 h -0.21875 c -0.734375,0 -0.75,-0.109375 -0.75,-0.46875 V -1.640625 H 4.6875 v -0.3125 H 3.703125 v -4.53125 c 0,-0.203125 0,-0.265625 -0.171875,-0.265625 -0.078125,0 -0.109375,0 -0.1875,0.125 l -3.0625,4.671875 v 0.3125 z m 0.046875,-0.3125 H 0.5625 l 2.421875,-3.71875 z m 0,0"
               style="stroke:#008000;fill:#008000;stroke-width:0" />
          </symbol>
        </g>
      </defs>
      <g
         transform="translate(-148.993, -128.015)"
         id="id-79055813-8df4-4a5e-99bf-f620defdd005"
         style="fill:#008000;stroke-width:0">
        <g
           id="id-80c7cf84-c554-4fa9-bade-7b4df7b92edf"
           style="fill:#008000;fill-opacity:1;stroke-width:0">
          <g
             transform="translate(148.712, 134.765)"
             style="fill:#008000;stroke-width:0"
             id="g1757">
            <path
               id="id-10aa5044-c487-4650-a7a2-c4400bd69478"
               d="m 2.9375,-1.640625 v 0.859375 c 0,0.359375 -0.03125,0.46875 -0.765625,0.46875 H 1.96875 V 0 C 2.375,-0.03125 2.890625,-0.03125 3.3125,-0.03125 c 0.421875,0 0.9375,0 1.359375,0.03125 v -0.3125 h -0.21875 c -0.734375,0 -0.75,-0.109375 -0.75,-0.46875 V -1.640625 H 4.6875 v -0.3125 H 3.703125 v -4.53125 c 0,-0.203125 0,-0.265625 -0.171875,-0.265625 -0.078125,0 -0.109375,0 -0.1875,0.125 l -3.0625,4.671875 v 0.3125 z m 0.046875,-0.3125 H 0.5625 l 2.421875,-3.71875 z m 0,0"
               style="stroke:#008000;fill:#008000;stroke-width:0" />
          </g>
        </g>
      </g>
    </g>
  </g>
</svg>
