<?xml version="1.0" encoding="UTF-8" standalone="no"?>
<svg
   xmlns:dc="http://purl.org/dc/elements/1.1/"
   xmlns:cc="http://creativecommons.org/ns#"
   xmlns:rdf="http://www.w3.org/1999/02/22-rdf-syntax-ns#"
   xmlns:svg="http://www.w3.org/2000/svg"
   xmlns="http://www.w3.org/2000/svg"
   xmlns:sodipodi="http://sodipodi.sourceforge.net/DTD/sodipodi-0.dtd"
   xmlns:inkscape="http://www.inkscape.org/namespaces/inkscape"
   sodipodi:docname="FtempNodes.svg"
   inkscape:version="1.0 (4035a4fb49, 2020-05-01)"
   id="svg5"
   version="1.1"
   viewBox="0 0 174.0749 136.4839"
   height="136.4839mm"
   width="174.07491mm">
  <metadata
     id="metadata35">
    <rdf:RDF>
      <cc:Work
         rdf:about="">
        <dc:format>image/svg+xml</dc:format>
        <dc:type
           rdf:resource="http://purl.org/dc/dcmitype/StillImage" />
        <dc:title></dc:title>
      </cc:Work>
    </rdf:RDF>
  </metadata>
  <sodipodi:namedview
     inkscape:document-rotation="0"
     inkscape:snap-midpoints="true"
     inkscape:snap-smooth-nodes="true"
     inkscape:object-paths="true"
     inkscape:snap-intersection-paths="true"
     inkscape:current-layer="layer1"
     inkscape:window-maximized="1"
     inkscape:window-y="-9"
     inkscape:window-x="-9"
     inkscape:window-height="991"
     inkscape:window-width="1920"
     inkscape:cy="336.48354"
     inkscape:cx="249.14088"
     inkscape:zoom="0.85165546"
     showgrid="false"
     inkscape:document-units="mm"
     inkscape:pagecheckerboard="0"
     inkscape:pageopacity="0.0"
     inkscape:pageshadow="2"
     borderopacity="1.0"
     bordercolor="#666666"
     pagecolor="#ffffff"
     id="namedview7" />
  <defs
     id="defs2">
    <g
       id="id-aa3f475a-e906-42c0-b311-f3559ebba2b3"
       style="fill:#008000;stroke-width:0">
      <symbol
         id="id-481c8b42-acef-4cec-bc4f-fa97da6867a1"
         overflow="visible"
         style="fill:#008000;stroke-width:0">
        <path
           id="id-157ac98b-6179-4961-9df4-3066c1e01b0b"
           d=""
           style="fill:#008000;stroke:#008000;stroke-width:0" />
      </symbol>
      <symbol
         id="id-da7a0aca-410b-4c82-aefe-d207ad554ce8"
         overflow="visible"
         style="fill:#008000;stroke-width:0">
        <path
           id="id-e877427c-9ee1-4f25-be17-f6aaa694b1d9"
           d="m 2.890625,-3.515625 c 0.8125,-0.265625 1.390625,-0.953125 1.390625,-1.75 0,-0.8125 -0.875,-1.375 -1.828125,-1.375 -1,0 -1.765625,0.59375 -1.765625,1.359375 0,0.328125 0.21875,0.515625 0.515625,0.515625 0.296875,0 0.5,-0.21875 0.5,-0.515625 0,-0.484375 -0.46875,-0.484375 -0.609375,-0.484375 0.296875,-0.5 0.953125,-0.625 1.3125,-0.625 0.421875,0 0.96875,0.21875 0.96875,1.109375 0,0.125 -0.03125,0.703125 -0.28125,1.140625 C 2.796875,-3.65625 2.453125,-3.625 2.203125,-3.625 2.125,-3.609375 1.890625,-3.59375 1.8125,-3.59375 c -0.078125,0.015625 -0.140625,0.03125 -0.140625,0.125 0,0.109375 0.0625,0.109375 0.234375,0.109375 h 0.4375 c 0.8125,0 1.1875,0.671875 1.1875,1.65625 0,1.359375 -0.6875,1.640625 -1.125,1.640625 -0.4375,0 -1.1875,-0.171875 -1.53125,-0.75 0.34375,0.046875 0.65625,-0.171875 0.65625,-0.546875 0,-0.359375 -0.265625,-0.5625 -0.546875,-0.5625 -0.25,0 -0.5625,0.140625 -0.5625,0.578125 0,0.90625 0.921875,1.5625 2.015625,1.5625 1.21875,0 2.125,-0.90625 2.125,-1.921875 0,-0.8125 -0.640625,-1.59375 -1.671875,-1.8125 z m 0,0"
           style="fill:#008000;stroke:#008000;stroke-width:0" />
      </symbol>
    </g>
    <g
       id="id-d10be47b-da1c-45a3-a5a4-3f8a69554cc4">
      <symbol
         id="id-a7cf06e6-924f-409b-9b65-7b9fec40e2bb"
         overflow="visible">
        <path
           id="id-1f4c7c54-6d63-4c92-8ffd-266fcc470df5"
           d=""
           style="stroke:none" />
      </symbol>
      <symbol
         id="id-0794a1a9-be42-42da-9475-664a9b983649"
         overflow="visible">
        <path
           id="id-114fd10f-d891-4978-b5c1-a6be0b9f6063"
           d="m 2.9375,-6.375 c 0,-0.25 0,-0.265625 -0.234375,-0.265625 C 2.078125,-6 1.203125,-6 0.890625,-6 v 0.3125 c 0.203125,0 0.78125,0 1.296875,-0.265625 v 5.171875 c 0,0.359375 -0.03125,0.46875 -0.921875,0.46875 h -0.3125 V 0 c 0.34375,-0.03125 1.203125,-0.03125 1.609375,-0.03125 0.390625,0 1.265625,0 1.609375,0.03125 v -0.3125 h -0.3125 c -0.90625,0 -0.921875,-0.109375 -0.921875,-0.46875 z m 0,0"
           style="stroke:none" />
      </symbol>
    </g>
    <g
       id="id-2195684b-199c-424d-9656-ab083fe6dd52"
       style="fill:#008000;stroke-width:0">
      <symbol
         id="id-91d2faa0-28af-4be1-a0ed-30787ffba172"
         overflow="visible"
         style="fill:#008000;stroke-width:0">
        <path
           id="id-8e0268bf-f2ef-4d31-bffa-ba385aa5dee8"
           d=""
           style="fill:#008000;stroke:#008000;stroke-width:0" />
      </symbol>
      <symbol
         id="id-ad603a95-a44f-4f80-ad79-fb6b6f45255a"
         overflow="visible"
         style="fill:#008000;stroke-width:0">
        <path
           id="id-ce1f8092-1d8f-4f05-a92e-60acebfd8410"
           d="m 1.265625,-0.765625 1.0625,-1.03125 c 1.546875,-1.375 2.140625,-1.90625 2.140625,-2.90625 0,-1.140625 -0.890625,-1.9375 -2.109375,-1.9375 -1.125,0 -1.859375,0.921875 -1.859375,1.8125 0,0.546875 0.5,0.546875 0.53125,0.546875 0.171875,0 0.515625,-0.109375 0.515625,-0.53125 0,-0.25 -0.1875,-0.515625 -0.53125,-0.515625 -0.078125,0 -0.09375,0 -0.125,0.015625 0.21875,-0.65625 0.765625,-1.015625 1.34375,-1.015625 0.90625,0 1.328125,0.8125 1.328125,1.625 C 3.5625,-3.90625 3.078125,-3.125 2.515625,-2.5 l -1.90625,2.125 C 0.5,-0.265625 0.5,-0.234375 0.5,0 H 4.203125 L 4.46875,-1.734375 H 4.234375 C 4.171875,-1.4375 4.109375,-1 4,-0.84375 3.9375,-0.765625 3.28125,-0.765625 3.0625,-0.765625 Z m 0,0"
           style="fill:#008000;stroke:#008000;stroke-width:0" />
      </symbol>
    </g>
    <g
       id="id-aa3f475a-e906-42c0-b311-f3559ebba2b3-8"
       style="fill:#008000;stroke-width:0">
      <symbol
         id="id-481c8b42-acef-4cec-bc4f-fa97da6867a1-7"
         overflow="visible"
         style="fill:#008000;stroke-width:0">
        <path
           id="id-157ac98b-6179-4961-9df4-3066c1e01b0b-3"
           d=""
           style="fill:#008000;stroke:#008000;stroke-width:0" />
      </symbol>
      <symbol
         id="id-da7a0aca-410b-4c82-aefe-d207ad554ce8-4"
         overflow="visible"
         style="fill:#008000;stroke-width:0">
        <path
           id="id-e877427c-9ee1-4f25-be17-f6aaa694b1d9-6"
           d="m 2.890625,-3.515625 c 0.8125,-0.265625 1.390625,-0.953125 1.390625,-1.75 0,-0.8125 -0.875,-1.375 -1.828125,-1.375 -1,0 -1.765625,0.59375 -1.765625,1.359375 0,0.328125 0.21875,0.515625 0.515625,0.515625 0.296875,0 0.5,-0.21875 0.5,-0.515625 0,-0.484375 -0.46875,-0.484375 -0.609375,-0.484375 0.296875,-0.5 0.953125,-0.625 1.3125,-0.625 0.421875,0 0.96875,0.21875 0.96875,1.109375 0,0.125 -0.03125,0.703125 -0.28125,1.140625 C 2.796875,-3.65625 2.453125,-3.625 2.203125,-3.625 2.125,-3.609375 1.890625,-3.59375 1.8125,-3.59375 c -0.078125,0.015625 -0.140625,0.03125 -0.140625,0.125 0,0.109375 0.0625,0.109375 0.234375,0.109375 h 0.4375 c 0.8125,0 1.1875,0.671875 1.1875,1.65625 0,1.359375 -0.6875,1.640625 -1.125,1.640625 -0.4375,0 -1.1875,-0.171875 -1.53125,-0.75 0.34375,0.046875 0.65625,-0.171875 0.65625,-0.546875 0,-0.359375 -0.265625,-0.5625 -0.546875,-0.5625 -0.25,0 -0.5625,0.140625 -0.5625,0.578125 0,0.90625 0.921875,1.5625 2.015625,1.5625 1.21875,0 2.125,-0.90625 2.125,-1.921875 0,-0.8125 -0.640625,-1.59375 -1.671875,-1.8125 z m 0,0"
           style="fill:#008000;stroke:#008000;stroke-width:0" />
      </symbol>
    </g>
    <g
       id="id-9bbdbe01-90fd-4204-8283-adc681659430"
       style="fill:#008000;stroke-width:0">
      <symbol
         id="id-9c2dc7a7-ce6e-41a4-ba14-cdc3b0c378a3"
         overflow="visible"
         style="fill:#008000;stroke-width:0">
        <path
           id="id-1fba83d5-0af3-4914-afc7-06ae508b3076"
           d=""
           style="fill:#008000;stroke:#008000;stroke-width:0" />
      </symbol>
      <symbol
         id="id-8a385248-b8e9-4d94-9e03-f0b815a3a1e7"
         overflow="visible"
         style="fill:#008000;stroke-width:0">
        <path
           id="id-0b09e8d0-243c-4012-8d30-5952702fcd27"
           d="m 2.9375,-1.640625 v 0.859375 c 0,0.359375 -0.03125,0.46875 -0.765625,0.46875 H 1.96875 V 0 C 2.375,-0.03125 2.890625,-0.03125 3.3125,-0.03125 c 0.421875,0 0.9375,0 1.359375,0.03125 v -0.3125 h -0.21875 c -0.734375,0 -0.75,-0.109375 -0.75,-0.46875 V -1.640625 H 4.6875 v -0.3125 H 3.703125 v -4.53125 c 0,-0.203125 0,-0.265625 -0.171875,-0.265625 -0.078125,0 -0.109375,0 -0.1875,0.125 l -3.0625,4.671875 v 0.3125 z m 0.046875,-0.3125 H 0.5625 l 2.421875,-3.71875 z m 0,0"
           style="fill:#008000;stroke:#008000;stroke-width:0" />
      </symbol>
    </g>
  </defs>
  <g
     transform="translate(-258.20607,-127.15463)"
     id="layer1"
     inkscape:groupmode="layer"
     inkscape:label="Layer 1">
    <ellipse
       ry="2.3504803"
       rx="2.283175"
       cy="139.666"
       cx="306.34119"
       id="ellipse13583"
       style="opacity:1;fill:none;stroke:#000000;stroke-width:0.648412;stroke-miterlimit:4;stroke-dasharray:none;stop-color:#000000" />
    <path
       style="fill:none;stroke:#00ccff;stroke-width:1;stroke-linecap:butt;stroke-linejoin:miter;stroke-miterlimit:4;stroke-dasharray:none;stroke-opacity:1"
       d="M 304.05806,139.66601 H 279.87008"
       id="path13605"
       sodipodi:nodetypes="cc" />
    <path
       style="fill:none;stroke:#00ccff;stroke-width:1;stroke-linecap:butt;stroke-linejoin:miter;stroke-miterlimit:4;stroke-dasharray:none;stroke-opacity:1"
       d="m 286.59493,136.70453 -6.72485,2.96148"
       id="path13607"
       sodipodi:nodetypes="cc" />
    <path
       sodipodi:nodetypes="cc"
       id="path13609"
       d="m 286.59493,142.62749 -6.72485,-2.96148"
       style="fill:none;stroke:#00ccff;stroke-width:1;stroke-linecap:butt;stroke-linejoin:miter;stroke-miterlimit:4;stroke-dasharray:none;stroke-opacity:1" />
    <path
       sodipodi:nodetypes="cc"
       id="path13625"
       d="m 306.34123,142.01649 v 13.72309"
       style="fill:none;stroke:#00ccff;stroke-width:1;stroke-linecap:butt;stroke-linejoin:miter;stroke-miterlimit:4;stroke-dasharray:none;stroke-opacity:1" />
    <path
       sodipodi:nodetypes="cc"
       id="path13627"
       d="m 303.37975,150.50349 2.96148,6.72485"
       style="fill:none;stroke:#00ccff;stroke-width:1;stroke-linecap:butt;stroke-linejoin:miter;stroke-miterlimit:4;stroke-dasharray:none;stroke-opacity:1" />
    <path
       style="fill:none;stroke:#00ccff;stroke-width:1;stroke-linecap:butt;stroke-linejoin:miter;stroke-miterlimit:4;stroke-dasharray:none;stroke-opacity:1"
       d="m 309.30271,150.50349 -2.96148,6.72485"
       id="path13629"
       sodipodi:nodetypes="cc" />
    <text
       xml:space="preserve"
       style="font-weight:bold;font-size:5.29167px;line-height:1.25;font-family:sans-serif;-inkscape-font-specification:'sans-serif Bold';stroke-width:0.264583"
       x="292.71667"
       y="163.32155"
       id="text13633"><tspan
         sodipodi:role="line"
         id="tspan13631"
         x="292.71667"
         y="163.32155"
         style="stroke-width:0.264583">127279N</tspan></text>
    <path
       style="fill:none;stroke:#00ccff;stroke-width:1;stroke-linecap:butt;stroke-linejoin:miter;stroke-miterlimit:4;stroke-dasharray:none;stroke-opacity:1"
       d="m 306.13158,167.34639 v 13.72309"
       id="path13635"
       sodipodi:nodetypes="cc" />
    <path
       style="fill:none;stroke:#00ccff;stroke-width:1;stroke-linecap:butt;stroke-linejoin:miter;stroke-miterlimit:4;stroke-dasharray:none;stroke-opacity:1"
       d="m 309.09306,175.83339 -2.96148,6.72485"
       id="path13637"
       sodipodi:nodetypes="cc" />
    <path
       sodipodi:nodetypes="cc"
       id="path13639"
       d="m 303.1701,175.83339 2.96148,6.72485"
       style="fill:none;stroke:#00ccff;stroke-width:1;stroke-linecap:butt;stroke-linejoin:miter;stroke-miterlimit:4;stroke-dasharray:none;stroke-opacity:1" />
    <text
       xml:space="preserve"
       style="font-weight:bold;font-size:5.29167px;line-height:1.25;font-family:sans-serif;-inkscape-font-specification:'sans-serif Bold';stroke-width:0.264583"
       x="292.71667"
       y="189.41118"
       id="text13643"><tspan
         sodipodi:role="line"
         id="tspan13641"
         x="292.71667"
         y="189.41118"
         style="stroke-width:0.264583">180000N</tspan></text>
    <path
       d="m 324.24635,140.0125 a 6.2133889,6.2133889 0 0 1 -6.20954,6.21338 6.2133889,6.2133889 0 0 1 -6.21724,-6.20568 6.2133889,6.2133889 0 0 1 6.20184,-6.22108 6.2133889,6.2133889 0 0 1 6.22492,6.19798"
       sodipodi:arc-type="arc"
       sodipodi:open="true"
       sodipodi:end="6.2807069"
       sodipodi:start="0"
       sodipodi:ry="6.2133889"
       sodipodi:rx="6.2133889"
       sodipodi:cy="140.0125"
       sodipodi:cx="318.03296"
       sodipodi:type="arc"
       id="path1705"
       style="opacity:1;fill:none;stroke:#00ff00;stroke-width:1;stroke-linejoin:round;stroke-miterlimit:4;stroke-dasharray:none;stop-color:#000000" />
    <text
       id="text1709"
       y="143.79613"
       x="314.27094"
       style="font-weight:bold;font-size:5.29167px;line-height:1.25;font-family:sans-serif;-inkscape-font-specification:'sans-serif Bold';fill:#00ff00;stroke:#00ff00;stroke-width:0.264583"
       xml:space="preserve"><tspan
         style="font-size:10.5833px;fill:#00ff00;stroke:#00ff00;stroke-width:0.264583"
         y="143.79613"
         x="314.27094"
         id="tspan1707"
         sodipodi:role="line">0</tspan></text>
    <text
       id="text851"
       y="135.17198"
       x="273.09961"
       style="font-weight:bold;font-size:5.29167px;line-height:1.25;font-family:sans-serif;-inkscape-font-specification:'sans-serif Bold';stroke-width:0.264583"
       xml:space="preserve"><tspan
         style="stroke-width:0.264583"
         y="135.17198"
         x="273.09961"
         id="tspan849"
         sodipodi:role="line">127279N</tspan></text>
    <ellipse
       style="opacity:1;fill:none;stroke:#000000;stroke-width:0.648412;stroke-miterlimit:4;stroke-dasharray:none;stop-color:#000000"
       id="ellipse13583-6"
       cx="371.24826"
       cy="140.18613"
       rx="2.283175"
       ry="2.3504803" />
    <path
       sodipodi:nodetypes="cc"
       id="path13605-4"
       d="m 373.5315,140.1861 h 24.18798"
       style="fill:none;stroke:#00ccff;stroke-width:1;stroke-linecap:butt;stroke-linejoin:miter;stroke-miterlimit:4;stroke-dasharray:none;stroke-opacity:1" />
    <path
       sodipodi:nodetypes="cc"
       id="path13607-4"
       d="m 390.99464,137.22462 6.72484,2.96148"
       style="fill:none;stroke:#00ccff;stroke-width:1;stroke-linecap:butt;stroke-linejoin:miter;stroke-miterlimit:4;stroke-dasharray:none;stroke-opacity:1" />
    <path
       style="fill:none;stroke:#00ccff;stroke-width:1;stroke-linecap:butt;stroke-linejoin:miter;stroke-miterlimit:4;stroke-dasharray:none;stroke-opacity:1"
       d="m 390.99464,143.14758 6.72484,-2.96148"
       id="path13609-7"
       sodipodi:nodetypes="cc" />
    <text
       id="text13613"
       y="135.69081"
       x="373.29425"
       style="font-weight:bold;font-size:5.29167px;line-height:1.25;font-family:sans-serif;-inkscape-font-specification:'sans-serif Bold';stroke-width:0.264583"
       xml:space="preserve"><tspan
         style="stroke-width:0.264583"
         y="135.69081"
         x="373.29425"
         id="tspan13611"
         sodipodi:role="line">127279N</tspan></text>
    <path
       style="fill:none;stroke:#00ccff;stroke-width:1;stroke-linecap:butt;stroke-linejoin:miter;stroke-miterlimit:4;stroke-dasharray:none;stroke-opacity:1"
       d="m 371.24832,142.53658 v 13.72309"
       id="path13625-7"
       sodipodi:nodetypes="cc" />
    <path
       style="fill:none;stroke:#00ccff;stroke-width:1;stroke-linecap:butt;stroke-linejoin:miter;stroke-miterlimit:4;stroke-dasharray:none;stroke-opacity:1"
       d="m 368.28684,151.02358 2.96148,6.72485"
       id="path13627-8"
       sodipodi:nodetypes="cc" />
    <path
       sodipodi:nodetypes="cc"
       id="path13629-4"
       d="m 374.2098,151.02358 -2.96148,6.72485"
       style="fill:none;stroke:#00ccff;stroke-width:1;stroke-linecap:butt;stroke-linejoin:miter;stroke-miterlimit:4;stroke-dasharray:none;stroke-opacity:1" />
    <text
       id="text13633-2"
       y="163.84167"
       x="357.62375"
       style="font-weight:bold;font-size:5.29167px;line-height:1.25;font-family:sans-serif;-inkscape-font-specification:'sans-serif Bold';stroke-width:0.264583"
       xml:space="preserve"><tspan
         style="stroke-width:0.264583"
         y="163.84167"
         x="357.62375"
         id="tspan13631-6"
         sodipodi:role="line">127279N</tspan></text>
    <path
       sodipodi:nodetypes="cc"
       id="path13635-5"
       d="m 371.03867,167.86648 v 13.72309"
       style="fill:none;stroke:#00ccff;stroke-width:1;stroke-linecap:butt;stroke-linejoin:miter;stroke-miterlimit:4;stroke-dasharray:none;stroke-opacity:1" />
    <path
       sodipodi:nodetypes="cc"
       id="path13637-5"
       d="m 374.00015,176.35348 -2.96148,6.72485"
       style="fill:none;stroke:#00ccff;stroke-width:1;stroke-linecap:butt;stroke-linejoin:miter;stroke-miterlimit:4;stroke-dasharray:none;stroke-opacity:1" />
    <path
       style="fill:none;stroke:#00ccff;stroke-width:1;stroke-linecap:butt;stroke-linejoin:miter;stroke-miterlimit:4;stroke-dasharray:none;stroke-opacity:1"
       d="m 368.07719,176.35348 2.96148,6.72485"
       id="path13639-6"
       sodipodi:nodetypes="cc" />
    <text
       id="text13643-0"
       y="189.9313"
       x="357.62375"
       style="font-weight:bold;font-size:5.29167px;line-height:1.25;font-family:sans-serif;-inkscape-font-specification:'sans-serif Bold';stroke-width:0.264583"
       xml:space="preserve"><tspan
         style="stroke-width:0.264583"
         y="189.9313"
         x="357.62375"
         id="tspan13641-0"
         sodipodi:role="line">180000N</tspan></text>
    <path
       style="opacity:1;fill:none;stroke:#00ff00;stroke-width:1;stroke-linejoin:round;stroke-miterlimit:4;stroke-dasharray:none;stop-color:#000000"
       id="path1705-3"
       sodipodi:type="arc"
       sodipodi:cx="359.4845"
       sodipodi:cy="139.91129"
       sodipodi:rx="6.2133889"
       sodipodi:ry="6.2133889"
       sodipodi:start="0"
       sodipodi:end="6.2807069"
       sodipodi:open="true"
       sodipodi:arc-type="arc"
       d="m 365.69789,139.91129 a 6.2133889,6.2133889 0 0 1 -6.20954,6.21338 6.2133889,6.2133889 0 0 1 -6.21724,-6.20568 6.2133889,6.2133889 0 0 1 6.20184,-6.22108 6.2133889,6.2133889 0 0 1 6.22492,6.19798" />
    <text
       xml:space="preserve"
       style="font-weight:bold;font-size:5.29167px;line-height:1.25;font-family:sans-serif;-inkscape-font-specification:'sans-serif Bold';fill:#00ff00;stroke:#00ff00;stroke-width:0.264583"
       x="355.72247"
       y="143.6949"
       id="text1709-1"><tspan
         sodipodi:role="line"
         id="tspan1707-2"
         x="355.72247"
         y="143.6949"
         style="font-size:10.5833px;fill:#00ff00;stroke:#00ff00;stroke-width:0.264583">1</tspan></text>
    <ellipse
       ry="2.3504803"
       rx="2.283175"
       cy="213.29913"
       cx="371.80099"
       id="ellipse13583-7"
       style="opacity:1;fill:none;stroke:#000000;stroke-width:0.648412;stroke-miterlimit:4;stroke-dasharray:none;stop-color:#000000" />
    <path
       style="fill:none;stroke:#00ccff;stroke-width:1;stroke-linecap:butt;stroke-linejoin:miter;stroke-miterlimit:4;stroke-dasharray:none;stroke-opacity:1"
       d="m 374.08418,213.29912 h 24.18798"
       id="path13605-8"
       sodipodi:nodetypes="cc" />
    <path
       style="fill:none;stroke:#00ccff;stroke-width:1;stroke-linecap:butt;stroke-linejoin:miter;stroke-miterlimit:4;stroke-dasharray:none;stroke-opacity:1"
       d="m 391.54731,210.33764 6.72485,2.96148"
       id="path13607-8"
       sodipodi:nodetypes="cc" />
    <path
       sodipodi:nodetypes="cc"
       id="path13609-8"
       d="m 391.54731,216.2606 6.72485,-2.96148"
       style="fill:none;stroke:#00ccff;stroke-width:1;stroke-linecap:butt;stroke-linejoin:miter;stroke-miterlimit:4;stroke-dasharray:none;stroke-opacity:1" />
    <path
       sodipodi:nodetypes="cc"
       id="path13625-2"
       d="M 371.801,231.79346 V 218.07037"
       style="fill:none;stroke:#00ccff;stroke-width:1;stroke-linecap:butt;stroke-linejoin:miter;stroke-miterlimit:4;stroke-dasharray:none;stroke-opacity:1" />
    <path
       sodipodi:nodetypes="cc"
       id="path13627-1"
       d="m 368.83952,223.30646 2.96148,-6.72485"
       style="fill:none;stroke:#00ccff;stroke-width:1;stroke-linecap:butt;stroke-linejoin:miter;stroke-miterlimit:4;stroke-dasharray:none;stroke-opacity:1" />
    <path
       style="fill:none;stroke:#00ccff;stroke-width:1;stroke-linecap:butt;stroke-linejoin:miter;stroke-miterlimit:4;stroke-dasharray:none;stroke-opacity:1"
       d="M 374.76248,223.30646 371.801,216.58161"
       id="path13629-8"
       sodipodi:nodetypes="cc" />
    <text
       xml:space="preserve"
       style="font-weight:bold;font-size:5.29167px;line-height:1.25;font-family:sans-serif;-inkscape-font-specification:'sans-serif Bold';stroke-width:0.264583"
       x="358.17648"
       y="236.95468"
       id="text13633-5"><tspan
         sodipodi:role="line"
         id="tspan13631-5"
         x="358.17648"
         y="236.95468"
         style="stroke-width:0.264583">127279N</tspan></text>
    <path
       style="fill:none;stroke:#00ccff;stroke-width:1;stroke-linecap:butt;stroke-linejoin:miter;stroke-miterlimit:4;stroke-dasharray:none;stroke-opacity:1"
       d="M 371.59135,254.10528 V 240.38219"
       id="path13635-6"
       sodipodi:nodetypes="cc" />
    <path
       style="fill:none;stroke:#00ccff;stroke-width:1;stroke-linecap:butt;stroke-linejoin:miter;stroke-miterlimit:4;stroke-dasharray:none;stroke-opacity:1"
       d="m 374.55283,245.61828 -2.96148,-6.72485"
       id="path13637-9"
       sodipodi:nodetypes="cc" />
    <path
       sodipodi:nodetypes="cc"
       id="path13639-2"
       d="m 368.62987,245.61828 2.96148,-6.72485"
       style="fill:none;stroke:#00ccff;stroke-width:1;stroke-linecap:butt;stroke-linejoin:miter;stroke-miterlimit:4;stroke-dasharray:none;stroke-opacity:1" />
    <text
       xml:space="preserve"
       style="font-weight:bold;font-size:5.29167px;line-height:1.25;font-family:sans-serif;-inkscape-font-specification:'sans-serif Bold';stroke-width:0.264583"
       x="358.17648"
       y="258.92795"
       id="text13643-16"><tspan
         sodipodi:role="line"
         id="tspan13641-5"
         x="358.17648"
         y="258.92795"
         style="stroke-width:0.264583">180000N</tspan></text>
    <path
       d="m 367.55143,213.18898 a 6.2133889,6.2133889 0 0 1 -6.20954,6.21339 6.2133889,6.2133889 0 0 1 -6.21723,-6.20569 6.2133889,6.2133889 0 0 1 6.20183,-6.22108 6.2133889,6.2133889 0 0 1 6.22492,6.19798"
       sodipodi:arc-type="arc"
       sodipodi:open="true"
       sodipodi:end="6.2807069"
       sodipodi:start="0"
       sodipodi:ry="6.2133889"
       sodipodi:rx="6.2133889"
       sodipodi:cy="213.18898"
       sodipodi:cx="361.33804"
       sodipodi:type="arc"
       id="path1705-6"
       style="opacity:1;fill:none;stroke:#00ff00;stroke-width:1;stroke-linejoin:round;stroke-miterlimit:4;stroke-dasharray:none;stop-color:#000000" />
    <text
       id="text1709-0"
       y="216.9726"
       x="357.57602"
       style="font-weight:bold;font-size:5.29167px;line-height:1.25;font-family:sans-serif;-inkscape-font-specification:'sans-serif Bold';fill:#00ff00;stroke:#00ff00;stroke-width:0.264583"
       xml:space="preserve"><tspan
         style="font-size:10.5833px;fill:#00ff00;stroke:#00ff00;stroke-width:0.264583"
         y="216.9726"
         x="357.57602"
         id="tspan1707-1"
         sodipodi:role="line">3</tspan></text>
    <text
       id="text851-0"
       y="208.8051"
       x="370.71722"
       style="font-weight:bold;font-size:5.29167px;line-height:1.25;font-family:sans-serif;-inkscape-font-specification:'sans-serif Bold';stroke-width:0.264583"
       xml:space="preserve"><tspan
         style="stroke-width:0.264583"
         y="208.8051"
         x="370.71722"
         id="tspan849-45"
         sodipodi:role="line">127279N</tspan></text>
    <path
       sodipodi:nodetypes="cc"
       id="path853-7"
       d="m 403.43101,213.29912 h 24.18798"
       style="fill:none;stroke:#00ccff;stroke-width:1;stroke-linecap:butt;stroke-linejoin:miter;stroke-miterlimit:4;stroke-dasharray:none;stroke-opacity:1" />
    <path
       sodipodi:nodetypes="cc"
       id="path855-0"
       d="m 420.89414,210.33764 6.72485,2.96148"
       style="fill:none;stroke:#00ccff;stroke-width:1;stroke-linecap:butt;stroke-linejoin:miter;stroke-miterlimit:4;stroke-dasharray:none;stroke-opacity:1" />
    <path
       style="fill:none;stroke:#00ccff;stroke-width:1;stroke-linecap:butt;stroke-linejoin:miter;stroke-miterlimit:4;stroke-dasharray:none;stroke-opacity:1"
       d="m 420.89414,216.2606 6.72485,-2.96148"
       id="path857-1"
       sodipodi:nodetypes="cc" />
    <text
       xml:space="preserve"
       style="font-weight:bold;font-size:5.29167px;line-height:1.25;font-family:sans-serif;-inkscape-font-specification:'sans-serif Bold';stroke-width:0.264583"
       x="406.89789"
       y="208.8051"
       id="text861-7"><tspan
         sodipodi:role="line"
         id="tspan859-1"
         x="406.89789"
         y="208.8051"
         style="stroke-width:0.264583">180kN</tspan></text>
    <ellipse
       style="opacity:1;fill:none;stroke:#000000;stroke-width:0.648412;stroke-miterlimit:4;stroke-dasharray:none;stop-color:#000000"
       id="ellipse13583-63"
       cx="318.64685"
       cy="213.29912"
       rx="2.283175"
       ry="2.3504803" />
    <path
       sodipodi:nodetypes="cc"
       id="path13605-3"
       d="M 315.83451,213.29909 H 291.64653"
       style="fill:none;stroke:#00ccff;stroke-width:1;stroke-linecap:butt;stroke-linejoin:miter;stroke-miterlimit:4;stroke-dasharray:none;stroke-opacity:1" />
    <path
       sodipodi:nodetypes="cc"
       id="path13607-2"
       d="m 298.37138,210.33761 -6.72485,2.96148"
       style="fill:none;stroke:#00ccff;stroke-width:1;stroke-linecap:butt;stroke-linejoin:miter;stroke-miterlimit:4;stroke-dasharray:none;stroke-opacity:1" />
    <path
       style="fill:none;stroke:#00ccff;stroke-width:1;stroke-linecap:butt;stroke-linejoin:miter;stroke-miterlimit:4;stroke-dasharray:none;stroke-opacity:1"
       d="m 298.37138,216.26057 -6.72485,-2.96148"
       id="path13609-6"
       sodipodi:nodetypes="cc" />
    <path
       style="fill:none;stroke:#00ccff;stroke-width:1;stroke-linecap:butt;stroke-linejoin:miter;stroke-miterlimit:4;stroke-dasharray:none;stroke-opacity:1"
       d="M 318.64687,231.79343 V 218.07034"
       id="path13625-75"
       sodipodi:nodetypes="cc" />
    <path
       style="fill:none;stroke:#00ccff;stroke-width:1;stroke-linecap:butt;stroke-linejoin:miter;stroke-miterlimit:4;stroke-dasharray:none;stroke-opacity:1"
       d="m 315.68537,223.30643 2.9615,-6.72485"
       id="path13627-4"
       sodipodi:nodetypes="cc" />
    <path
       sodipodi:nodetypes="cc"
       id="path13629-7"
       d="m 321.60833,223.30643 -2.96146,-6.72485"
       style="fill:none;stroke:#00ccff;stroke-width:1;stroke-linecap:butt;stroke-linejoin:miter;stroke-miterlimit:4;stroke-dasharray:none;stroke-opacity:1" />
    <text
       id="text13633-27"
       y="236.95467"
       x="305.02234"
       style="font-weight:bold;font-size:5.29167px;line-height:1.25;font-family:sans-serif;-inkscape-font-specification:'sans-serif Bold';stroke-width:0.264583"
       xml:space="preserve"><tspan
         style="stroke-width:0.264583"
         y="236.95467"
         x="305.02234"
         id="tspan13631-1"
         sodipodi:role="line">127279N</tspan></text>
    <path
       sodipodi:nodetypes="cc"
       id="path13635-0"
       d="M 318.43722,254.10525 V 240.38216"
       style="fill:none;stroke:#00ccff;stroke-width:1;stroke-linecap:butt;stroke-linejoin:miter;stroke-miterlimit:4;stroke-dasharray:none;stroke-opacity:1" />
    <path
       sodipodi:nodetypes="cc"
       id="path13637-59"
       d="m 321.39869,245.61825 -2.96147,-6.72485"
       style="fill:none;stroke:#00ccff;stroke-width:1;stroke-linecap:butt;stroke-linejoin:miter;stroke-miterlimit:4;stroke-dasharray:none;stroke-opacity:1" />
    <path
       style="fill:none;stroke:#00ccff;stroke-width:1;stroke-linecap:butt;stroke-linejoin:miter;stroke-miterlimit:4;stroke-dasharray:none;stroke-opacity:1"
       d="m 315.47572,245.61825 2.9615,-6.72485"
       id="path13639-8"
       sodipodi:nodetypes="cc" />
    <text
       id="text13643-1"
       y="258.92795"
       x="305.02234"
       style="font-weight:bold;font-size:5.29167px;line-height:1.25;font-family:sans-serif;-inkscape-font-specification:'sans-serif Bold';stroke-width:0.264583"
       xml:space="preserve"><tspan
         style="stroke-width:0.264583"
         y="258.92795"
         x="305.02234"
         id="tspan13641-3"
         sodipodi:role="line">180000N</tspan></text>
    <path
       style="opacity:1;fill:none;stroke:#00ff00;stroke-width:1;stroke-linejoin:round;stroke-miterlimit:4;stroke-dasharray:none;stop-color:#000000"
       id="path1705-1"
       sodipodi:type="arc"
       sodipodi:cx="330.33862"
       sodipodi:cy="212.93484"
       sodipodi:rx="6.2133889"
       sodipodi:ry="6.2133889"
       sodipodi:start="0"
       sodipodi:end="6.2807069"
       sodipodi:open="true"
       sodipodi:arc-type="arc"
       d="m 336.55201,212.93484 a 6.2133889,6.2133889 0 0 1 -6.20954,6.21339 6.2133889,6.2133889 0 0 1 -6.21723,-6.20569 6.2133889,6.2133889 0 0 1 6.20183,-6.22107 6.2133889,6.2133889 0 0 1 6.22492,6.19798" />
    <text
       xml:space="preserve"
       style="font-weight:bold;font-size:5.29167px;line-height:1.25;font-family:sans-serif;-inkscape-font-specification:'sans-serif Bold';fill:#00ff00;stroke:#00ff00;stroke-width:0.264583"
       x="326.5766"
       y="216.71846"
       id="text1709-9"><tspan
         sodipodi:role="line"
         id="tspan1707-8"
         x="326.5766"
         y="216.71846"
         style="font-size:10.5833px;fill:#00ff00;stroke:#00ff00;stroke-width:0.264583">2</tspan></text>
    <text
       xml:space="preserve"
       style="font-weight:bold;font-size:5.29167px;line-height:1.25;font-family:sans-serif;-inkscape-font-specification:'sans-serif Bold';stroke-width:0.264583"
       x="289.68893"
       y="208.8051"
       id="text851-5"><tspan
         sodipodi:role="line"
         id="tspan849-4"
         x="289.68893"
         y="208.8051"
         style="stroke-width:0.264583">127279N</tspan></text>
    <path
       style="fill:none;stroke:#00ccff;stroke-width:1;stroke-linecap:butt;stroke-linejoin:miter;stroke-miterlimit:4;stroke-dasharray:none;stroke-opacity:1"
       d="M 286.48768,213.29909 H 262.2997"
       id="path853"
       sodipodi:nodetypes="cc" />
    <path
       style="fill:none;stroke:#00ccff;stroke-width:1;stroke-linecap:butt;stroke-linejoin:miter;stroke-miterlimit:4;stroke-dasharray:none;stroke-opacity:1"
       d="m 269.02455,210.33761 -6.72485,2.96148"
       id="path855"
       sodipodi:nodetypes="cc" />
    <path
       sodipodi:nodetypes="cc"
       id="path857"
       d="m 269.02455,216.26057 -6.72485,-2.96148"
       style="fill:none;stroke:#00ccff;stroke-width:1;stroke-linecap:butt;stroke-linejoin:miter;stroke-miterlimit:4;stroke-dasharray:none;stroke-opacity:1" />
    <text
       id="text861"
       y="208.8051"
       x="262.22937"
       style="font-weight:bold;font-size:5.29167px;line-height:1.25;font-family:sans-serif;-inkscape-font-specification:'sans-serif Bold';stroke-width:0.264583"
       xml:space="preserve"><tspan
         style="stroke-width:0.264583"
         y="208.8051"
         x="262.22937"
         id="tspan859"
         sodipodi:role="line">180kN</tspan></text>
  </g>
</svg>
